<?xml version="1.0" encoding="UTF-8"?>
<!DOCTYPE svg PUBLIC "-//W3C//DTD SVG 1.1//EN" "http://www.w3.org/Graphics/SVG/1.1/DTD/svg11.dtd">
<svg xmlns="http://www.w3.org/2000/svg" version="1.1" width="2800px" height="2800px" style="shape-rendering:geometricPrecision; text-rendering:geometricPrecision; image-rendering:optimizeQuality; fill-rule:evenodd; clip-rule:evenodd" xmlns:xlink="http://www.w3.org/1999/xlink">
<g><path style="opacity:0.996" fill="#176bda" d="M 1717.5,538.5 C 1715.02,539.26 1715.02,540.26 1717.5,541.5C 1710.62,559.887 1698.96,574.553 1682.5,585.5C 1681.79,584.596 1680.79,584.263 1679.5,584.5C 1679.5,585.5 1679.5,586.5 1679.5,587.5C 1670.53,592.658 1660.87,596.158 1650.5,598C 1636.48,598.743 1622.48,598.576 1608.5,597.5C 1607.83,594.833 1607.17,594.833 1606.5,597.5C 1530.57,591.57 1454.57,586.57 1378.5,582.5C 1359.18,583.711 1339.85,584.544 1320.5,585C 1303.84,586.609 1287.18,588.109 1270.5,589.5C 1269.05,588.115 1268.05,588.448 1267.5,590.5C 1241.99,594.111 1216.66,598.778 1191.5,604.5C 1190.5,601.833 1189.5,601.833 1188.5,604.5C 1175.41,607.786 1162.41,611.452 1149.5,615.5C 1148.83,612.833 1148.17,612.833 1147.5,615.5C 1112.6,625.626 1078.6,637.96 1045.5,652.5C 1044.05,651.115 1043.05,651.448 1042.5,653.5C 1036.9,656.046 1031.23,658.712 1025.5,661.5C 1024.38,660.243 1023.71,660.576 1023.5,662.5C 990.811,678.01 959.145,695.343 928.5,714.5C 926.821,714.285 925.821,714.952 925.5,716.5C 919.377,721.068 913.044,725.401 906.5,729.5C 905.377,728.243 904.711,728.576 904.5,730.5C 901.725,733.605 898.392,735.938 894.5,737.5C 893.5,737.5 892.5,737.5 891.5,737.5C 891.5,738.5 891.5,739.5 891.5,740.5C 865.216,759.157 840.216,779.49 816.5,801.5C 816.44,800.957 816.107,800.624 815.5,800.5C 814.614,801.325 814.281,802.325 814.5,803.5C 789.126,827.207 765.126,852.207 742.5,878.5C 741.167,878.5 740.5,879.167 740.5,880.5C 706.97,922.378 676.97,966.711 650.5,1013.5C 648.824,1014.18 648.157,1015.52 648.5,1017.5C 641.481,1031.54 634.481,1045.54 627.5,1059.5C 625.824,1060.18 625.157,1061.52 625.5,1063.5C 605.662,1108.83 589.496,1155.49 577,1203.5C 571.74,1226.88 566.906,1250.21 562.5,1273.5C 561.414,1273.62 560.747,1274.29 560.5,1275.5C 560.747,1276.71 561.414,1277.38 562.5,1277.5C 554.152,1331.15 551.152,1385.15 553.5,1439.5C 552.414,1439.62 551.747,1440.29 551.5,1441.5C 551.747,1442.71 552.414,1443.38 553.5,1443.5C 555.174,1466.91 557.508,1490.24 560.5,1513.5C 558.824,1514.18 558.157,1515.52 558.5,1517.5C 559.5,1517.5 560.5,1517.5 561.5,1517.5C 566.754,1556.96 575.421,1595.62 587.5,1633.5C 586.414,1633.62 585.747,1634.29 585.5,1635.5C 585.747,1636.71 586.414,1637.38 587.5,1637.5C 591.901,1649.04 595.901,1660.7 599.5,1672.5C 598.115,1673.95 598.448,1674.95 600.5,1675.5C 611.051,1702.82 622.384,1729.82 634.5,1756.5C 634.351,1757.55 634.517,1758.55 635,1759.5C 635.74,1761.32 636.907,1762.65 638.5,1763.5C 639.404,1764.21 639.737,1765.21 639.5,1766.5C 639.66,1768.15 640.326,1769.49 641.5,1770.5C 652.82,1790.48 664.154,1810.48 675.5,1830.5C 675.285,1832.18 675.952,1833.18 677.5,1833.5C 701.78,1871.13 728.78,1906.8 758.5,1940.5C 758.281,1941.68 758.614,1942.68 759.5,1943.5C 760.107,1943.38 760.44,1943.04 760.5,1942.5C 769.105,1952.44 778.105,1962.11 787.5,1971.5C 789.051,1974.56 791.218,1977.23 794,1979.5C 794.399,1979.27 794.565,1978.94 794.5,1978.5C 857.616,2040.02 928.283,2090.69 1006.5,2130.5C 1006.82,2132.05 1007.82,2132.71 1009.5,2132.5C 1009.65,2137.42 1010.65,2137.42 1012.5,2132.5C 1145.05,2197.04 1285.71,2224.54 1434.5,2215C 1527.4,2208.35 1616.4,2187.19 1701.5,2151.5C 1702.62,2152.76 1703.29,2152.42 1703.5,2150.5C 1733.64,2137.43 1762.97,2122.76 1791.5,2106.5C 1793.33,2107.72 1794.33,2107.05 1794.5,2104.5C 1850.35,2072.33 1901.69,2033.99 1948.5,1989.5C 1948.56,1990.04 1948.89,1990.38 1949.5,1990.5C 1950.39,1989.68 1950.72,1988.68 1950.5,1987.5C 1967.2,1971.47 1983.2,1954.8 1998.5,1937.5C 1999.21,1938.4 2000.21,1938.74 2001.5,1938.5C 2001.5,1937.17 2001.5,1935.83 2001.5,1934.5C 2030.9,1900.45 2057.56,1864.45 2081.5,1826.5C 2083.05,1826.18 2083.71,1825.18 2083.5,1823.5C 2086.11,1818.23 2089.11,1813.23 2092.5,1808.5C 2094.05,1808.18 2094.71,1807.18 2094.5,1805.5C 2100.13,1794.27 2106.13,1783.27 2112.5,1772.5C 2114.92,1769.58 2116.59,1766.25 2117.5,1762.5C 2122.22,1752.14 2126.89,1741.8 2131.5,1731.5C 2134.08,1730.95 2135.08,1729.29 2134.5,1726.5C 2143.94,1703.41 2152.77,1680.08 2161,1656.5C 2168.75,1631 2175.91,1605.34 2182.5,1579.5C 2183.59,1579.38 2184.25,1578.71 2184.5,1577.5C 2184.25,1576.29 2183.59,1575.62 2182.5,1575.5C 2187.21,1555.28 2191.38,1534.94 2195,1514.5C 2197.12,1495.16 2200.29,1476.16 2204.5,1457.5C 2205.59,1457.38 2206.25,1456.71 2206.5,1455.5C 2206.25,1454.29 2205.59,1453.62 2204.5,1453.5C 2204.82,1426.46 2214.16,1403.13 2232.5,1383.5C 2236.83,1379.34 2241.5,1375.68 2246.5,1372.5C 2247.21,1373.4 2248.21,1373.74 2249.5,1373.5C 2249.5,1372.5 2249.5,1371.5 2249.5,1370.5C 2268.97,1359.15 2289.63,1356.49 2311.5,1362.5C 2312.17,1365.17 2312.83,1365.17 2313.5,1362.5C 2344.31,1373.64 2363.98,1394.98 2372.5,1426.5C 2371.41,1426.62 2370.75,1427.29 2370.5,1428.5C 2370.75,1429.71 2371.41,1430.38 2372.5,1430.5C 2374.53,1438.67 2375.03,1447 2374,1455.5C 2370.15,1479.67 2365.98,1503.67 2361.5,1527.5C 2360.41,1527.62 2359.75,1528.29 2359.5,1529.5C 2359.75,1530.71 2360.41,1531.38 2361.5,1531.5C 2358.12,1556.97 2354.12,1582.3 2349.5,1607.5C 2346.83,1608.5 2346.83,1609.5 2349.5,1610.5C 2348.11,1618.53 2346.61,1626.53 2345,1634.5C 2344.62,1635.06 2344.12,1635.39 2343.5,1635.5C 2340.83,1636.5 2340.83,1637.5 2343.5,1638.5C 2343.44,1639.61 2343.11,1640.61 2342.5,1641.5C 2340.82,1642.18 2340.16,1643.52 2340.5,1645.5C 2338.28,1650.27 2335.78,1654.93 2333,1659.5C 2331.4,1665.01 2329.57,1670.34 2327.5,1675.5C 2324.83,1676.5 2324.83,1677.5 2327.5,1678.5C 2325.16,1685.22 2322.82,1691.89 2320.5,1698.5C 2319.41,1698.62 2318.75,1699.29 2318.5,1700.5C 2318.54,1701.42 2318.88,1702.08 2319.5,1702.5C 2317.8,1708.66 2315.8,1714.66 2313.5,1720.5C 2311.45,1721.05 2311.11,1722.05 2312.5,1723.5C 2307.9,1736.97 2302.9,1750.3 2297.5,1763.5C 2295.45,1764.05 2295.11,1765.05 2296.5,1766.5C 2294.17,1772.78 2291.5,1778.78 2288.5,1784.5C 2286.82,1785.18 2286.16,1786.52 2286.5,1788.5C 2275.51,1814.78 2263.18,1840.45 2249.5,1865.5C 2248.5,1865.41 2247.67,1865.75 2247,1866.5C 2245.59,1868.65 2244.75,1870.99 2244.5,1873.5C 2241.26,1881 2237.26,1888 2232.5,1894.5C 2230.95,1894.82 2230.29,1895.82 2230.5,1897.5C 2199.67,1951.35 2163.34,2001.35 2121.5,2047.5C 2120.5,2047.5 2119.5,2047.5 2118.5,2047.5C 2118.5,2048.5 2118.5,2049.5 2118.5,2050.5C 2113.15,2057.18 2107.48,2063.52 2101.5,2069.5C 2099.5,2069.5 2098.5,2070.5 2098.5,2072.5C 2086.5,2085.17 2074.17,2097.5 2061.5,2109.5C 2061.44,2108.96 2061.11,2108.62 2060.5,2108.5C 2059.61,2109.32 2059.28,2110.32 2059.5,2111.5C 1998.54,2169.31 1931.2,2218.31 1857.5,2258.5C 1856.43,2257.57 1855.1,2257.23 1853.5,2257.5C 1853.5,2258.5 1853.5,2259.5 1853.5,2260.5C 1832.38,2272.44 1810.72,2283.44 1788.5,2293.5C 1787.05,2292.11 1786.05,2292.45 1785.5,2294.5C 1766.54,2303.09 1747.21,2311.09 1727.5,2318.5C 1726.05,2317.11 1725.05,2317.45 1724.5,2319.5C 1718.85,2321.67 1713.19,2324.01 1707.5,2326.5C 1706.83,2323.83 1706.17,2323.83 1705.5,2326.5C 1697.26,2329.65 1688.93,2332.65 1680.5,2335.5C 1679.5,2332.83 1678.5,2332.83 1677.5,2335.5C 1638.9,2348.57 1599.23,2358.57 1558.5,2365.5C 1557.5,2362.83 1556.5,2362.83 1555.5,2365.5C 1555.08,2366.22 1554.42,2366.72 1553.5,2367C 1529.91,2370.83 1506.25,2373.99 1482.5,2376.5C 1481.5,2373.83 1480.5,2373.83 1479.5,2376.5C 1465.59,2378.08 1451.59,2379.75 1437.5,2381.5C 1437.5,2380.5 1437.5,2379.5 1437.5,2378.5C 1436.5,2378.5 1435.5,2378.5 1434.5,2378.5C 1434.5,2379.5 1434.5,2380.5 1434.5,2381.5C 1391.46,2381.49 1348.63,2381.49 1306,2381.5C 1304.17,2379.93 1302.01,2379.09 1299.5,2379C 1277,2377.73 1254.67,2375.23 1232.5,2371.5C 1231.83,2368.83 1231.17,2368.83 1230.5,2371.5C 1200.2,2366.7 1170.2,2360.7 1140.5,2353.5C 1139.83,2350.83 1139.17,2350.83 1138.5,2353.5C 1070.02,2336.65 1004.35,2312.65 941.5,2281.5C 940.652,2279.91 939.319,2278.74 937.5,2278C 936.552,2277.52 935.552,2277.35 934.5,2277.5C 933.076,2275.85 931.243,2274.51 929,2273.5C 927.97,2273.84 927.47,2274.5 927.5,2275.5C 926.128,2274.49 924.795,2273.49 923.5,2272.5C 922.947,2270.45 921.947,2270.11 920.5,2271.5C 900.85,2261.34 881.517,2250.68 862.5,2239.5C 862.5,2238.5 862.5,2237.5 862.5,2236.5C 861.5,2236.5 860.5,2236.5 859.5,2236.5C 840.304,2225.74 821.97,2213.74 804.5,2200.5C 804.289,2198.58 803.623,2198.24 802.5,2199.5C 794.196,2193.68 785.862,2187.84 777.5,2182C 771.91,2177.72 766.577,2173.22 761.5,2168.5C 761.332,2165.95 760.332,2165.28 758.5,2166.5C 743.223,2154.89 728.556,2142.56 714.5,2129.5C 714.512,2126.86 713.179,2125.52 710.5,2125.5C 702.508,2118.84 694.841,2111.84 687.5,2104.5C 687.715,2102.82 687.048,2101.82 685.5,2101.5C 684.462,2099.37 683.129,2098.37 681.5,2098.5C 676.5,2094.17 671.833,2089.5 667.5,2084.5C 667.167,2082.17 665.833,2080.83 663.5,2080.5C 655.493,2072.49 647.827,2064.16 640.5,2055.5C 640.719,2054.32 640.386,2053.32 639.5,2052.5C 638.893,2052.62 638.56,2052.96 638.5,2053.5C 631.529,2045.53 624.529,2037.53 617.5,2029.5C 617.912,2027.03 616.912,2025.69 614.5,2025.5C 603.409,2012.74 593.076,1999.41 583.5,1985.5C 583.5,1983.5 582.5,1982.5 580.5,1982.5C 565.869,1963.26 552.203,1943.26 539.5,1922.5C 539.715,1920.82 539.048,1919.82 537.5,1919.5C 530.388,1909.33 524.055,1898.66 518.5,1887.5C 518.912,1885.03 517.912,1883.69 515.5,1883.5C 508.63,1871.76 502.296,1859.76 496.5,1847.5C 496.715,1845.82 496.048,1844.82 494.5,1844.5C 431.297,1720.05 395.63,1588.05 387.5,1448.5C 388.5,1448.5 389.5,1448.5 390.5,1448.5C 390.5,1447.17 390.5,1445.83 390.5,1444.5C 389.5,1444.5 388.5,1444.5 387.5,1444.5C 387.514,1409.79 387.514,1375.29 387.5,1341C 388,1340.5 388.5,1340 389,1339.5C 389.392,1335.47 389.892,1331.47 390.5,1327.5C 393.167,1326.5 393.167,1325.5 390.5,1324.5C 392.621,1299.71 395.621,1275.05 399.5,1250.5C 402.167,1249.5 402.167,1248.5 399.5,1247.5C 406.385,1205.69 415.719,1164.36 427.5,1123.5C 429.252,1123.58 430.252,1122.75 430.5,1121C 430.164,1119.97 429.497,1119.47 428.5,1119.5C 431.489,1111.7 433.989,1103.7 436,1095.5C 436.383,1094.94 436.883,1094.61 437.5,1094.5C 439.256,1093.45 439.923,1091.78 439.5,1089.5C 441.597,1088.12 441.93,1086.45 440.5,1084.5C 447.388,1063.5 455.055,1042.83 463.5,1022.5C 464.5,1022.5 465.5,1022.5 466.5,1022.5C 466.5,1020.83 466.5,1019.17 466.5,1017.5C 469.533,1007.73 473.533,998.396 478.5,989.5C 480.176,988.817 480.843,987.483 480.5,985.5C 487.409,969.765 495.075,954.431 503.5,939.5C 505.048,939.179 505.715,938.179 505.5,936.5C 512.457,922.589 519.957,908.923 528,895.5C 530.61,891.258 533.443,887.258 536.5,883.5C 538.048,883.179 538.715,882.179 538.5,880.5C 555.948,852.058 574.948,824.725 595.5,798.5C 595.435,798.938 595.601,799.272 596,799.5C 597.039,798.756 597.539,797.756 597.5,796.5C 629.73,754.759 665.397,715.926 704.5,680C 714.059,671.6 723.725,663.433 733.5,655.5C 735.5,655.5 736.5,654.5 736.5,652.5C 739.141,650.196 741.808,647.862 744.5,645.5C 746.332,646.718 747.332,646.051 747.5,643.5C 884.117,531.893 1039.45,461.06 1213.5,431C 1241.74,426.766 1270.07,423.433 1298.5,421C 1301.11,420.853 1303.44,420.019 1305.5,418.5C 1353.7,418.502 1401.86,418.502 1450,418.5C 1507.92,423.421 1566.09,427.588 1624.5,431C 1661.67,430.249 1690.34,445.249 1710.5,476C 1718.89,491.013 1722.39,507.18 1721,524.5C 1720.42,529.466 1719.26,534.133 1717.5,538.5 Z"/></g>
<g><path style="opacity:0.024" fill="#0630a9" d="M 2156.5,516.5 C 2155.46,518.531 2153.79,519.864 2151.5,520.5C 2152.61,519.115 2153.61,517.615 2154.5,516C 2155.44,515.308 2156.1,515.475 2156.5,516.5 Z"/></g>
<g><path style="opacity:0.91" fill="#1972e6" d="M 2306.5,539.5 C 2306.97,540.906 2307.97,541.573 2309.5,541.5C 2313.58,542.396 2317.08,544.396 2320,547.5C 2320.33,547.167 2320.67,546.833 2321,546.5C 2321.78,549.837 2323.94,551.503 2327.5,551.5C 2337.31,560.093 2347.47,569.426 2358,579.5C 2362.99,584.833 2367.49,590.5 2371.5,596.5C 2371.86,598.19 2372.86,599.19 2374.5,599.5C 2375.4,601.905 2376.9,603.905 2379,605.5C 2379.49,606.793 2379.66,608.127 2379.5,609.5C 2380.82,609.33 2381.99,609.663 2383,610.5C 2388.65,620.648 2393.82,630.982 2398.5,641.5C 2398.5,642.833 2399.17,643.5 2400.5,643.5C 2399.64,647.916 2400.81,651.916 2404,655.5C 2403.6,660.893 2405.1,665.56 2408.5,669.5C 2408.5,670.167 2408.5,670.833 2408.5,671.5C 2408.5,672.833 2408.5,674.167 2408.5,675.5C 2409.5,675.5 2410.5,675.5 2411.5,675.5C 2411.5,706.5 2411.5,737.5 2411.5,768.5C 2407.32,769.182 2405.99,771.516 2407.5,775.5C 2405.26,776.3 2404.26,777.966 2404.5,780.5C 2402.66,782.279 2401.99,784.612 2402.5,787.5C 2401.19,790.881 2400.19,794.381 2399.5,798C 2396.29,800.696 2394.79,804.196 2395,808.5C 2393.52,809.471 2392.69,810.804 2392.5,812.5C 2390.74,813.552 2390.08,815.219 2390.5,817.5C 2388.67,820.132 2386.83,822.799 2385,825.5C 2383.22,830.593 2380.22,834.926 2376,838.5C 2373.08,843.335 2369.92,848.001 2366.5,852.5C 2364.82,852.285 2363.82,852.952 2363.5,854.5C 2360.92,859.091 2357.92,863.424 2354.5,867.5C 2352.17,867.833 2350.83,869.167 2350.5,871.5C 2342.44,882.541 2333.77,892.874 2324.5,902.5C 2323.5,902.833 2322.83,903.5 2322.5,904.5C 2321.58,906.754 2320.25,908.754 2318.5,910.5C 2316.98,911.174 2315.64,912.174 2314.5,913.5C 2313.61,914.325 2313.28,915.325 2313.5,916.5C 2311.39,917.95 2310.06,919.95 2309.5,922.5C 2307.82,922.285 2306.82,922.952 2306.5,924.5C 2303.17,928.496 2300.33,932.83 2298,937.5C 2293.75,941.752 2289.41,946.086 2285,950.5C 2275.67,962.614 2266.17,974.614 2256.5,986.5C 2255.5,986.833 2254.83,987.5 2254.5,988.5C 2252.5,990.5 2250.5,992.5 2248.5,994.5C 2246.41,995.585 2245.08,997.251 2244.5,999.5C 2242.16,1003.5 2239.33,1007.16 2236,1010.5C 2235.52,1011.45 2235.35,1012.45 2235.5,1013.5C 2234.32,1013.28 2233.32,1013.61 2232.5,1014.5C 2228.12,1019.55 2224.12,1024.88 2220.5,1030.5C 2216.08,1035.82 2211.41,1040.82 2206.5,1045.5C 2205.09,1045.97 2204.43,1046.97 2204.5,1048.5C 2195.49,1059.84 2186.49,1071.17 2177.5,1082.5C 2172.47,1087.2 2167.8,1092.2 2163.5,1097.5C 2161.59,1098.49 2160.59,1100.15 2160.5,1102.5C 2156.39,1107.73 2152.06,1112.73 2147.5,1117.5C 2145.95,1117.82 2145.29,1118.82 2145.5,1120.5C 2144.17,1122.17 2142.83,1123.83 2141.5,1125.5C 2138.83,1126.17 2137.17,1127.83 2136.5,1130.5C 2132.18,1136.81 2127.52,1142.81 2122.5,1148.5C 2121.17,1148.5 2120.5,1149.17 2120.5,1150.5C 2110.57,1163.1 2100.24,1175.43 2089.5,1187.5C 2088.5,1187.83 2087.83,1188.5 2087.5,1189.5C 2085.74,1190.26 2084.74,1191.6 2084.5,1193.5C 2084.26,1195.4 2083.26,1196.74 2081.5,1197.5C 2080.17,1198.17 2079.17,1199.17 2078.5,1200.5C 2078.5,1201.17 2078.17,1201.5 2077.5,1201.5C 2076.09,1201.97 2075.43,1202.97 2075.5,1204.5C 2072.55,1208.62 2069.38,1212.62 2066,1216.5C 2065.21,1217.74 2064.71,1219.08 2064.5,1220.5C 2061.4,1222.65 2058.74,1225.32 2056.5,1228.5C 2054.97,1228.43 2053.97,1229.09 2053.5,1230.5C 2053.5,1231.17 2053.17,1231.5 2052.5,1231.5C 2049.96,1232.71 2048.62,1234.71 2048.5,1237.5C 2045.76,1239.24 2043.76,1241.57 2042.5,1244.5C 2040.18,1248.15 2037.52,1251.48 2034.5,1254.5C 2034.44,1253.96 2034.11,1253.62 2033.5,1253.5C 2032.61,1254.32 2032.28,1255.32 2032.5,1256.5C 2026.9,1265.1 2020.57,1273.1 2013.5,1280.5C 2011.86,1280.81 2010.86,1281.81 2010.5,1283.5C 2009.14,1285.19 2007.8,1286.86 2006.5,1288.5C 2004.74,1289.26 2003.74,1290.6 2003.5,1292.5C 1996.92,1300.09 1990.25,1307.76 1983.5,1315.5C 1981.95,1315.82 1981.29,1316.82 1981.5,1318.5C 1977.46,1323.21 1973.8,1328.21 1970.5,1333.5C 1966.08,1337.58 1962.08,1341.91 1958.5,1346.5C 1958.57,1346.06 1958.4,1345.73 1958,1345.5C 1956.52,1346.47 1955.69,1347.8 1955.5,1349.5C 1955.29,1350.92 1954.79,1352.26 1954,1353.5C 1944.87,1362.45 1936.7,1372.12 1929.5,1382.5C 1928.17,1382.5 1927.5,1383.17 1927.5,1384.5C 1926.19,1386.47 1924.53,1388.14 1922.5,1389.5C 1920.95,1389.82 1920.29,1390.82 1920.5,1392.5C 1919.83,1393.83 1918.83,1394.83 1917.5,1395.5C 1915.41,1396.58 1914.08,1398.25 1913.5,1400.5C 1912.21,1402.8 1910.88,1405.14 1909.5,1407.5C 1903.8,1413.2 1898.47,1419.2 1893.5,1425.5C 1892.27,1425.72 1891.27,1426.39 1890.5,1427.5C 1889.91,1427.29 1889.41,1426.96 1889,1426.5C 1888.51,1427.79 1888.34,1429.13 1888.5,1430.5C 1887.18,1430.33 1886.01,1430.66 1885,1431.5C 1884.47,1434.51 1883.3,1437.17 1881.5,1439.5C 1880.26,1441.49 1878.92,1443.49 1877.5,1445.5C 1875.95,1445.82 1875.29,1446.82 1875.5,1448.5C 1862.09,1464.23 1848.76,1479.9 1835.5,1495.5C 1834.83,1495.5 1834.5,1495.83 1834.5,1496.5C 1832.27,1497.4 1831.27,1499.07 1831.5,1501.5C 1831.16,1502.34 1830.49,1502.67 1829.5,1502.5C 1827.95,1502.82 1827.29,1503.82 1827.5,1505.5C 1823.12,1510.55 1819.12,1515.88 1815.5,1521.5C 1807.09,1530.57 1799.09,1539.9 1791.5,1549.5C 1790.17,1549.5 1789.5,1550.17 1789.5,1551.5C 1777.47,1565.2 1766.14,1579.54 1755.5,1594.5C 1753.97,1594.43 1752.97,1595.09 1752.5,1596.5C 1751.5,1597.5 1750.5,1598.5 1749.5,1599.5C 1748.17,1599.5 1747.5,1600.17 1747.5,1601.5C 1745.49,1604.83 1743.15,1607.83 1740.5,1610.5C 1739.09,1610.97 1738.43,1611.97 1738.5,1613.5C 1731.49,1621.44 1725.16,1629.44 1719.5,1637.5C 1717.95,1637.82 1717.29,1638.82 1717.5,1640.5C 1713.62,1643.9 1709.95,1647.56 1706.5,1651.5C 1698.4,1662.24 1690.07,1672.57 1681.5,1682.5C 1680.17,1682.5 1679.5,1683.17 1679.5,1684.5C 1677.54,1687.79 1675.21,1690.79 1672.5,1693.5C 1670.17,1693.83 1668.83,1695.17 1668.5,1697.5C 1667.92,1699.75 1666.59,1701.42 1664.5,1702.5C 1663.09,1702.97 1662.43,1703.97 1662.5,1705.5C 1656.28,1713.99 1649.61,1721.99 1642.5,1729.5C 1640.74,1730.26 1639.74,1731.6 1639.5,1733.5C 1638.5,1734.83 1637.5,1736.17 1636.5,1737.5C 1635.66,1737.84 1635.33,1738.51 1635.5,1739.5C 1630.63,1743.47 1626.63,1748.13 1623.5,1753.5C 1621.97,1753.43 1620.97,1754.09 1620.5,1755.5C 1618.9,1756.29 1618.23,1757.62 1618.5,1759.5C 1606.77,1773.56 1595.1,1787.56 1583.5,1801.5C 1582.09,1801.97 1581.43,1802.97 1581.5,1804.5C 1572.86,1814.81 1564.2,1825.14 1555.5,1835.5C 1553.17,1835.83 1551.83,1837.17 1551.5,1839.5C 1550.97,1841.23 1549.97,1842.56 1548.5,1843.5C 1546.87,1845.46 1544.87,1846.8 1542.5,1847.5C 1548.27,1829.76 1553.44,1811.76 1558,1793.5C 1560.85,1774.33 1561.01,1754.99 1558.5,1735.5C 1558.57,1733.44 1558.9,1731.44 1559.5,1729.5C 1558.25,1725.26 1557.42,1720.93 1557,1716.5C 1554.16,1707.24 1551.16,1697.91 1548,1688.5C 1541.58,1675.64 1535.25,1663.3 1529,1651.5C 1525.19,1647.7 1522.19,1643.36 1520,1638.5C 1515.92,1636.09 1512.92,1632.76 1511,1628.5C 1506.32,1623.65 1501.49,1618.98 1496.5,1614.5C 1495.91,1614.71 1495.41,1615.04 1495,1615.5C 1494.12,1612.9 1492.62,1610.73 1490.5,1609C 1487.09,1605.62 1483.09,1602.95 1478.5,1601C 1476.17,1597.44 1472.83,1595.11 1468.5,1594C 1465.89,1591.93 1463.39,1589.77 1461,1587.5C 1460.67,1588.17 1460.33,1588.83 1460,1589.5C 1455.77,1586.92 1451.77,1583.92 1448,1580.5C 1447.59,1580.96 1447.09,1581.29 1446.5,1581.5C 1445.18,1579.32 1443.51,1578.65 1441.5,1579.5C 1439.46,1578.96 1437.46,1578.29 1435.5,1577.5C 1433.96,1576.25 1432.46,1574.92 1431,1573.5C 1427.76,1575.12 1425.09,1574.45 1423,1571.5C 1414.1,1568.96 1404.93,1567.62 1395.5,1567.5C 1395.65,1566.45 1395.48,1565.45 1395,1564.5C 1392.09,1565.14 1389.09,1565.48 1386,1565.5C 1358.89,1563.08 1332.05,1565.25 1305.5,1572C 1303.29,1574.02 1300.62,1575.19 1297.5,1575.5C 1295.17,1578.06 1292.17,1579.39 1288.5,1579.5C 1287.45,1579.32 1286.45,1578.99 1285.5,1578.5C 1280.17,1582 1275,1585.67 1270,1589.5C 1269.67,1588.83 1269.33,1588.17 1269,1587.5C 1266.36,1588.98 1264.19,1590.98 1262.5,1593.5C 1259.83,1594.04 1257.67,1595.37 1256,1597.5C 1255.67,1597.17 1255.33,1596.83 1255,1596.5C 1253.62,1599.11 1251.46,1600.61 1248.5,1601C 1239.15,1610.59 1229.48,1619.76 1219.5,1628.5C 1214.17,1634.21 1209.34,1640.21 1205,1646.5C 1204.51,1647.55 1204.67,1648.55 1205.5,1649.5C 1204.37,1650.26 1203.21,1650.93 1202,1651.5C 1201.63,1653.87 1200.46,1655.7 1198.5,1657C 1196.87,1662.33 1194.37,1666.49 1191,1669.5C 1190.11,1673.88 1188.27,1677.71 1185.5,1681C 1185.83,1681.33 1186.17,1681.67 1186.5,1682C 1185.03,1685.63 1183.19,1689.13 1181,1692.5C 1180.66,1698.56 1178.83,1704.06 1175.5,1709C 1176.45,1712.06 1176.78,1715.22 1176.5,1718.5C 1175.5,1718.5 1174.5,1718.5 1173.5,1718.5C 1173.02,1726.16 1172.52,1733.83 1172,1741.5C 1171.59,1741.96 1171.09,1742.29 1170.5,1742.5C 1169.5,1752.48 1169.17,1762.48 1169.5,1772.5C 1170.5,1772.5 1171.5,1772.5 1172.5,1772.5C 1172.61,1780.84 1172.95,1789.18 1173.5,1797.5C 1174.5,1797.5 1175.5,1797.5 1176.5,1797.5C 1176.89,1806.83 1178.23,1815.83 1180.5,1824.5C 1181.5,1824.5 1182.5,1824.5 1183.5,1824.5C 1183.42,1827.27 1183.92,1829.94 1185,1832.5C 1185.65,1831.3 1186.15,1831.3 1186.5,1832.5C 1186.17,1833.17 1185.83,1833.83 1185.5,1834.5C 1188.72,1838.64 1190.88,1843.31 1192,1848.5C 1194.77,1849.21 1195.6,1850.71 1194.5,1853C 1197.16,1854 1198.16,1855.67 1197.5,1858C 1208.11,1874.05 1220.44,1888.88 1234.5,1902.5C 1237.09,1904.04 1239.59,1905.71 1242,1907.5C 1242.48,1908.45 1242.65,1909.45 1242.5,1910.5C 1244.56,1910.69 1246.56,1911.19 1248.5,1912C 1250.83,1915 1253.5,1917.67 1256.5,1920C 1259.98,1921.24 1262.98,1923.24 1265.5,1926C 1269.7,1928.62 1274.36,1930.29 1279.5,1931C 1279.17,1931.33 1278.83,1931.67 1278.5,1932C 1282.45,1935.64 1286.95,1937.47 1292,1937.5C 1299.49,1942.5 1307.65,1945.83 1316.5,1947.5C 1317.17,1947.17 1317.83,1946.83 1318.5,1946.5C 1319.27,1947.61 1320.27,1948.28 1321.5,1948.5C 1325.24,1950.08 1329.24,1951.24 1333.5,1952C 1350.78,1954.14 1368.11,1954.8 1385.5,1954C 1386.06,1953.62 1386.39,1953.12 1386.5,1952.5C 1398.88,1951.63 1410.88,1949.29 1422.5,1945.5C 1429.04,1943.18 1435.7,1941.01 1442.5,1939C 1447.91,1936.05 1453.24,1933.22 1458.5,1930.5C 1468.98,1925.34 1478.65,1919.01 1487.5,1911.5C 1489.17,1910.17 1490.83,1908.83 1492.5,1907.5C 1493.17,1907.5 1493.83,1907.5 1494.5,1907.5C 1490.78,1912.19 1486.44,1916.19 1481.5,1919.5C 1476.52,1922.8 1471.52,1926.13 1466.5,1929.5C 1465.5,1929.83 1464.83,1930.5 1464.5,1931.5C 1462.16,1931.67 1460.49,1932.84 1459.5,1935C 1457.56,1935.81 1455.56,1936.31 1453.5,1936.5C 1452.09,1936.97 1451.43,1937.97 1451.5,1939.5C 1447.99,1939.96 1444.99,1941.46 1442.5,1944C 1438.75,1943.78 1435.75,1945.11 1433.5,1948C 1430.2,1948.2 1427.2,1949.04 1424.5,1950.5C 1423.17,1950.5 1422.5,1951.17 1422.5,1952.5C 1419.39,1952.26 1416.39,1952.6 1413.5,1953.5C 1412.38,1952.24 1411.71,1952.58 1411.5,1954.5C 1410.83,1954.83 1410.17,1955.17 1409.5,1955.5C 1409.57,1955.06 1409.4,1954.73 1409,1954.5C 1405.68,1955.7 1402.51,1957.03 1399.5,1958.5C 1398.39,1959.29 1397.06,1959.79 1395.5,1960C 1391.33,1960.17 1387.17,1960.33 1383,1960.5C 1359.93,1960.69 1336.76,1960.35 1313.5,1959.5C 1313.63,1958.62 1313.3,1957.96 1312.5,1957.5C 1308.5,1956.91 1304.84,1955.58 1301.5,1953.5C 1300.5,1952.17 1299.5,1952.17 1298.5,1953.5C 1293.74,1953.23 1289.41,1951.73 1285.5,1949C 1281.75,1949.22 1278.75,1947.89 1276.5,1945C 1275.21,1944.51 1273.87,1944.34 1272.5,1944.5C 1272.66,1942.8 1272.49,1941.13 1272,1939.5C 1271.28,1940.45 1270.45,1940.62 1269.5,1940C 1270.57,1938.37 1271.9,1937.2 1273.5,1936.5C 1272.26,1935.72 1271.26,1934.72 1270.5,1933.5C 1265.06,1930.7 1259.73,1927.87 1254.5,1925C 1252.42,1920.62 1249.08,1917.62 1244.5,1916C 1242.12,1911.69 1238.45,1909.53 1233.5,1909.5C 1233.45,1904.94 1231.11,1902.44 1226.5,1902C 1226.83,1901.67 1227.17,1901.33 1227.5,1901C 1225.7,1897.87 1223.2,1895.37 1220,1893.5C 1219.52,1892.55 1219.35,1891.55 1219.5,1890.5C 1218.5,1890.5 1217.5,1890.5 1216.5,1890.5C 1216.26,1887.74 1214.92,1885.57 1212.5,1884C 1212.83,1883.67 1213.17,1883.33 1213.5,1883C 1208.62,1882.89 1206.62,1880.39 1207.5,1875.5C 1205.5,1874.83 1203.5,1874.17 1201.5,1873.5C 1200.63,1870.1 1199.46,1866.77 1198,1863.5C 1196.99,1862.66 1195.82,1862.33 1194.5,1862.5C 1194.67,1860.51 1194,1858.84 1192.5,1857.5C 1193.03,1856.81 1193.69,1856.31 1194.5,1856C 1188.88,1852.42 1186.55,1847.42 1187.5,1841C 1186.45,1840.51 1185.45,1840.67 1184.5,1841.5C 1183.35,1838.55 1182.35,1835.55 1181.5,1832.5C 1179.89,1831.57 1178.22,1830.74 1176.5,1830C 1180.28,1828.36 1180.28,1827.19 1176.5,1826.5C 1176.24,1824.21 1176.58,1822.04 1177.5,1820C 1175,1815.65 1172.67,1811.15 1170.5,1806.5C 1172.17,1804.49 1172.84,1802.16 1172.5,1799.5C 1171.5,1799.5 1170.5,1799.5 1169.5,1799.5C 1169.98,1795.57 1169.31,1791.9 1167.5,1788.5C 1169.48,1785.09 1169.98,1781.42 1169,1777.5C 1167.99,1776.66 1166.82,1776.33 1165.5,1776.5C 1165.5,1764.5 1165.5,1752.5 1165.5,1740.5C 1167.12,1740.64 1168.29,1739.97 1169,1738.5C 1169.5,1730.84 1169.67,1723.17 1169.5,1715.5C 1170.5,1715.5 1171.5,1715.5 1172.5,1715.5C 1172.68,1713.06 1172.02,1710.9 1170.5,1709C 1172.83,1704.33 1175.17,1699.67 1177.5,1695C 1176.39,1693.19 1177.06,1692.35 1179.5,1692.5C 1180.54,1686.1 1181.87,1679.76 1183.5,1673.5C 1184.5,1673.5 1185.5,1673.5 1186.5,1673.5C 1187.15,1669.2 1188.65,1665.2 1191,1661.5C 1192.07,1660.81 1193.23,1660.31 1194.5,1660C 1193.83,1659.67 1193.17,1659.33 1192.5,1659C 1196.91,1654.25 1199.91,1648.75 1201.5,1642.5C 1206.3,1642.54 1208.3,1640.38 1207.5,1636C 1208.76,1635.08 1210.09,1634.24 1211.5,1633.5C 1212.08,1632 1212.92,1630.67 1214,1629.5C 1214.41,1629.96 1214.91,1630.29 1215.5,1630.5C 1216.47,1628.6 1216.8,1626.6 1216.5,1624.5C 1217.93,1624.58 1219.26,1624.25 1220.5,1623.5C 1228.58,1614.75 1236.58,1606.75 1244.5,1599.5C 1251.78,1595.41 1258.78,1590.91 1265.5,1586C 1268.96,1586.9 1270.63,1585.4 1270.5,1581.5C 1275.9,1581.04 1280.56,1579.71 1284.5,1577.5C 1284.5,1576.5 1284.5,1575.5 1284.5,1574.5C 1291.26,1572.31 1298.26,1570.98 1305.5,1570.5C 1305.5,1569.5 1305.5,1568.5 1305.5,1567.5C 1312.22,1566.11 1319.22,1564.45 1326.5,1562.5C 1329.44,1564.15 1331.77,1563.65 1333.5,1561C 1344.15,1559.16 1354.98,1558.32 1366,1558.5C 1376.36,1558.28 1386.53,1559.12 1396.5,1561C 1397.67,1561.5 1398.5,1562.33 1399,1563.5C 1400.23,1562.89 1401.56,1562.56 1403,1562.5C 1407.26,1563.57 1411.43,1564.91 1415.5,1566.5C 1416.83,1566.17 1418.17,1565.83 1419.5,1565.5C 1421.33,1566.75 1423.33,1567.42 1425.5,1567.5C 1425.5,1568.5 1425.5,1569.5 1425.5,1570.5C 1429.17,1570.5 1432.83,1570.5 1436.5,1570.5C 1436.38,1573.2 1437.38,1573.87 1439.5,1572.5C 1441.52,1574.17 1443.86,1574.84 1446.5,1574.5C 1446.5,1575.5 1446.5,1576.5 1446.5,1577.5C 1451.38,1578.22 1456.05,1579.55 1460.5,1581.5C 1460.48,1585 1461.98,1586.33 1465,1585.5C 1465.29,1587.04 1465.96,1588.38 1467,1589.5C 1467.33,1588.83 1467.67,1588.17 1468,1587.5C 1468.9,1588.7 1470.07,1589.53 1471.5,1590C 1471.17,1590.33 1470.83,1590.67 1470.5,1591C 1475.05,1591.81 1478.55,1594.31 1481,1598.5C 1481.33,1598.17 1481.67,1597.83 1482,1597.5C 1483.07,1598.19 1484.23,1598.69 1485.5,1599C 1486.83,1600 1486.83,1601 1485.5,1602C 1487.46,1604.58 1489.79,1605.75 1492.5,1605.5C 1496.47,1607.46 1499.47,1610.46 1501.5,1614.5C 1505.05,1618.25 1508.38,1618.25 1511.5,1614.5C 1510.62,1613.75 1509.62,1613.25 1508.5,1613C 1504.68,1608.18 1500.51,1603.68 1496,1599.5C 1495.05,1599.91 1494.39,1600.57 1494,1601.5C 1493.76,1599.24 1493.26,1597.07 1492.5,1595C 1489,1593.71 1486,1591.71 1483.5,1589C 1481.98,1587.99 1480.31,1587.49 1478.5,1587.5C 1477.36,1585 1476.69,1582.33 1476.5,1579.5C 1472.01,1579.18 1468.67,1577.02 1466.5,1573C 1462.22,1572.55 1459.22,1570.38 1457.5,1566.5C 1454.09,1563.38 1450.59,1560.38 1447,1557.5C 1446.52,1556.55 1446.35,1555.55 1446.5,1554.5C 1442.97,1552.49 1439.3,1550.66 1435.5,1549C 1431.62,1545.59 1428.29,1541.76 1425.5,1537.5C 1420.44,1534.08 1415.44,1530.75 1410.5,1527.5C 1410.5,1526.5 1410.5,1525.5 1410.5,1524.5C 1408.07,1524.12 1405.74,1523.45 1403.5,1522.5C 1402.76,1518.59 1400.43,1516.09 1396.5,1515C 1392.97,1508.92 1387.97,1504.76 1381.5,1502.5C 1381.5,1501.17 1381.5,1499.83 1381.5,1498.5C 1379.74,1498.64 1378.07,1498.31 1376.5,1497.5C 1371.9,1492.1 1366.9,1487.1 1361.5,1482.5C 1360.15,1481.05 1358.48,1480.38 1356.5,1480.5C 1356.5,1479.5 1356.5,1478.5 1356.5,1477.5C 1352.81,1477.81 1350.47,1476.15 1349.5,1472.5C 1344.51,1472.03 1341.85,1469.36 1341.5,1464.5C 1339.29,1464.03 1337.29,1463.03 1335.5,1461.5C 1339.01,1458.49 1342.34,1455.32 1345.5,1452C 1344.83,1451.67 1344.17,1451.33 1343.5,1451C 1345.35,1448.82 1347.51,1446.99 1350,1445.5C 1350.62,1444.55 1350.45,1443.72 1349.5,1443C 1352.58,1440.38 1355.74,1437.88 1359,1435.5C 1359.2,1433.74 1359.7,1432.08 1360.5,1430.5C 1366.21,1425.13 1371.54,1419.46 1376.5,1413.5C 1377.47,1411.6 1377.8,1409.6 1377.5,1407.5C 1378.55,1407.65 1379.55,1407.48 1380.5,1407C 1383.98,1403.02 1387.65,1399.18 1391.5,1395.5C 1396.78,1387 1403.28,1379 1411,1371.5C 1412.16,1372.99 1412.99,1372.83 1413.5,1371C 1413.09,1370.05 1412.43,1369.39 1411.5,1369C 1413.11,1367.95 1413.77,1366.45 1413.5,1364.5C 1414.55,1364.65 1415.55,1364.48 1416.5,1364C 1417.81,1361.69 1419.48,1359.69 1421.5,1358C 1422.2,1355.59 1422.53,1353.26 1422.5,1351C 1419.94,1348.84 1419.94,1346.68 1422.5,1344.5C 1432.59,1330.72 1443.42,1317.38 1455,1304.5C 1456.87,1300.56 1459.87,1296.89 1464,1293.5C 1469.6,1285.95 1475.43,1278.62 1481.5,1271.5C 1484.17,1270.83 1485.83,1269.17 1486.5,1266.5C 1503.98,1244.31 1521.15,1223.31 1538,1203.5C 1545.43,1195.24 1552.26,1186.58 1558.5,1177.5C 1564.54,1171.73 1569.88,1165.4 1574.5,1158.5C 1576.05,1158.18 1576.71,1157.18 1576.5,1155.5C 1583.4,1148.57 1589.73,1141.07 1595.5,1133C 1595.17,1132.67 1594.83,1132.33 1594.5,1132C 1597.54,1130.97 1600.04,1129.14 1602,1126.5C 1607.85,1117.08 1614.85,1108.75 1623,1101.5C 1628.27,1092.54 1635.1,1084.21 1643.5,1076.5C 1647.91,1070.44 1652.25,1064.44 1656.5,1058.5C 1657.49,1058.67 1658.16,1058.34 1658.5,1057.5C 1675.76,1036.89 1692.76,1015.89 1709.5,994.5C 1710.85,993.476 1712.19,992.476 1713.5,991.5C 1715.18,990.817 1715.84,989.483 1715.5,987.5C 1729.71,971.1 1743.88,954.433 1758,937.5C 1764.62,927.344 1772.29,918.011 1781,909.5C 1783.37,904.979 1786.53,901.313 1790.5,898.5C 1792.05,898.179 1792.71,897.179 1792.5,895.5C 1796.56,890.933 1800.06,885.933 1803,880.5C 1812.26,871.359 1820.59,861.359 1828,850.5C 1830.64,849.024 1832.81,847.024 1834.5,844.5C 1838,839.5 1841.5,834.5 1845,829.5C 1849.55,825.403 1853.89,821.07 1858,816.5C 1859.41,814.35 1860.24,812.016 1860.5,809.5C 1863.39,809.78 1864.89,808.447 1865,805.5C 1871.41,799.586 1876.91,792.92 1881.5,785.5C 1928.8,729.854 1975.46,673.52 2021.5,616.5C 2027.55,611.103 2032.55,604.77 2036.5,597.5C 2037.17,597.5 2037.5,597.167 2037.5,596.5C 2038.5,596.586 2039.33,596.252 2040,595.5C 2043.65,590.018 2047.82,585.018 2052.5,580.5C 2053.83,579.833 2054.83,578.833 2055.5,577.5C 2068.79,562.871 2084.13,550.871 2101.5,541.5C 2103.5,541.5 2104.5,540.5 2104.5,538.5C 2111.62,535.124 2118.95,532.124 2126.5,529.5C 2128.83,529.167 2130.17,527.833 2130.5,525.5C 2131.15,525.804 2131.82,526.137 2132.5,526.5C 2138.49,523.551 2144.83,521.551 2151.5,520.5C 2153.79,519.864 2155.46,518.531 2156.5,516.5C 2189.43,515.341 2222.43,515.175 2255.5,516C 2257.17,517.667 2258.83,519.333 2260.5,521C 2267.12,522.001 2273.79,523.668 2280.5,526C 2283.28,529.557 2286.95,531.224 2291.5,531C 2296.93,533.389 2301.93,536.222 2306.5,539.5 Z"/></g>
<g><path style="opacity:0.02" fill="#092ea1" d="M 2130.5,525.5 C 2130.17,527.833 2128.83,529.167 2126.5,529.5C 2127.33,527.736 2128.66,526.402 2130.5,525.5 Z"/></g>
<g><path style="opacity:0.047" fill="#0a2650" d="M 1717.5,538.5 C 1717.5,539.5 1717.5,540.5 1717.5,541.5C 1715.02,540.26 1715.02,539.26 1717.5,538.5 Z"/></g>
<g><path style="opacity:0.031" fill="#0b254b" d="M 2104.5,538.5 C 2104.5,540.5 2103.5,541.5 2101.5,541.5C 2102.17,540.167 2103.17,539.167 2104.5,538.5 Z"/></g>
<g><path style="opacity:0.004" fill="#0a325b" d="M 2306.5,539.5 C 2308.03,539.427 2309.03,540.094 2309.5,541.5C 2307.97,541.573 2306.97,540.906 2306.5,539.5 Z"/></g>
<g><path style="opacity:0.004" fill="#000000" d="M 2327.5,550.5 C 2328.83,551.167 2328.83,551.167 2327.5,550.5 Z"/></g>
<g><path style="opacity:0.012" fill="#0d2c54" d="M 2055.5,577.5 C 2054.83,578.833 2053.83,579.833 2052.5,580.5C 2052.5,578.5 2053.5,577.5 2055.5,577.5 Z"/></g>
<g><path style="opacity:0.188" fill="#0e3267" d="M 1682.5,585.5 C 1681.71,586.401 1680.71,587.068 1679.5,587.5C 1679.5,586.5 1679.5,585.5 1679.5,584.5C 1680.79,584.263 1681.79,584.596 1682.5,585.5 Z"/></g>
<g><path style="opacity:0.004" fill="#092959" d="M 1270.5,589.5 C 1269.39,589.557 1268.39,589.89 1267.5,590.5C 1268.05,588.448 1269.05,588.115 1270.5,589.5 Z"/></g>
<g><path style="opacity:0.031" fill="#061b96" d="M 1608.5,597.5 C 1607.83,597.5 1607.17,597.5 1606.5,597.5C 1607.17,594.833 1607.83,594.833 1608.5,597.5 Z"/></g>
<g><path style="opacity:0.004" fill="#010d1c" d="M 2037.5,596.5 C 2037.5,597.167 2037.17,597.5 2036.5,597.5C 2035.45,596.922 2035.62,596.256 2037,595.5C 2037.4,595.728 2037.57,596.062 2037.5,596.5 Z"/></g>
<g><path style="opacity:0.004" fill="#04178b" d="M 2371.5,596.5 C 2373.5,596.5 2374.5,597.5 2374.5,599.5C 2372.86,599.19 2371.86,598.19 2371.5,596.5 Z"/></g>
<g><path style="opacity:0.443" fill="#0c3061" d="M 1191.5,604.5 C 1190.5,604.5 1189.5,604.5 1188.5,604.5C 1189.5,601.833 1190.5,601.833 1191.5,604.5 Z"/></g>
<g><path style="opacity:0.016" fill="#062043" d="M 1149.5,615.5 C 1148.83,615.5 1148.17,615.5 1147.5,615.5C 1148.17,612.833 1148.83,612.833 1149.5,615.5 Z"/></g>
<g><path style="opacity:0.004" fill="#000406" d="M 2021.5,616.5 C 2020.83,615.167 2020.83,615.167 2021.5,616.5 Z"/></g>
<g><path style="opacity:0.004" fill="#042953" d="M 2400.5,643.5 C 2399.17,643.5 2398.5,642.833 2398.5,641.5C 2398.43,641.062 2398.6,640.728 2399,640.5C 2399.51,641.527 2400.01,642.527 2400.5,643.5 Z"/></g>
<g><path style="opacity:0.373" fill="#0e386f" d="M 747.5,643.5 C 747.332,646.051 746.332,646.718 744.5,645.5C 745.5,644.833 746.5,644.167 747.5,643.5 Z"/></g>
<g><path style="opacity:0.051" fill="#0f3770" d="M 1045.5,652.5 C 1044.39,652.557 1043.39,652.89 1042.5,653.5C 1043.05,651.448 1044.05,651.115 1045.5,652.5 Z"/></g>
<g><path style="opacity:0.318" fill="#0e3061" d="M 736.5,652.5 C 736.5,654.5 735.5,655.5 733.5,655.5C 734.167,654.167 735.167,653.167 736.5,652.5 Z"/></g>
<g><path style="opacity:0.008" fill="#0d182c" d="M 1025.5,661.5 C 1024.83,661.833 1024.17,662.167 1023.5,662.5C 1023.71,660.576 1024.38,660.243 1025.5,661.5 Z"/></g>
<g><path style="opacity:0.004" fill="#050717" d="M 2408.5,669.5 C 2410.18,669.285 2411.18,669.952 2411.5,671.5C 2410.5,671.5 2409.5,671.5 2408.5,671.5C 2408.5,670.833 2408.5,670.167 2408.5,669.5 Z"/></g>
<g><path style="opacity:0.004" fill="#021584" d="M 2408.5,671.5 C 2409.5,671.5 2410.5,671.5 2411.5,671.5C 2411.5,672.833 2411.5,674.167 2411.5,675.5C 2410.5,675.5 2409.5,675.5 2408.5,675.5C 2408.5,674.167 2408.5,672.833 2408.5,671.5 Z"/></g>
<g><path style="opacity:0.098" fill="#0c336a" d="M 928.5,714.5 C 927.71,715.401 926.71,716.068 925.5,716.5C 925.821,714.952 926.821,714.285 928.5,714.5 Z"/></g>
<g><path style="opacity:0.02" fill="#051c94" d="M 906.5,729.5 C 906.158,730.338 905.492,730.672 904.5,730.5C 904.711,728.576 905.377,728.243 906.5,729.5 Z"/></g>
<g><path style="opacity:0.173" fill="#0f2b59" d="M 894.5,737.5 C 893.833,738.833 892.833,739.833 891.5,740.5C 891.5,739.5 891.5,738.5 891.5,737.5C 892.5,737.5 893.5,737.5 894.5,737.5 Z"/></g>
<g><path style="opacity:0.004" fill="#0b1788" d="M 2411.5,768.5 C 2411.5,769.5 2411.5,770.5 2411.5,771.5C 2409.97,771.427 2408.97,772.094 2408.5,773.5C 2408.67,774.492 2408.34,775.158 2407.5,775.5C 2405.99,771.516 2407.32,769.182 2411.5,768.5 Z"/></g>
<g><path style="opacity:0.004" fill="#030016" d="M 2411.5,771.5 C 2411.18,773.048 2410.18,773.715 2408.5,773.5C 2408.97,772.094 2409.97,771.427 2411.5,771.5 Z"/></g>
<g><path style="opacity:0.051" fill="#104996" d="M 2404.5,780.5 C 2404.66,782.527 2404.5,784.527 2404,786.5C 2403.62,787.056 2403.12,787.389 2402.5,787.5C 2401.99,784.612 2402.66,782.279 2404.5,780.5 Z"/></g>
<g><path style="opacity:0.208" fill="#0a2d5e" d="M 597.5,796.5 C 597.539,797.756 597.039,798.756 596,799.5C 595.601,799.272 595.435,798.938 595.5,798.5C 595.833,797.5 596.5,796.833 597.5,796.5 Z"/></g>
<g><path style="opacity:0.004" fill="#071589" d="M 816.5,801.5 C 816.167,802.5 815.5,803.167 814.5,803.5C 814.281,802.325 814.614,801.325 815.5,800.5C 816.107,800.624 816.44,800.957 816.5,801.5 Z"/></g>
<g><path style="opacity:0.016" fill="#022f65" d="M 2392.5,812.5 C 2392.2,814.403 2391.54,816.07 2390.5,817.5C 2390.08,815.219 2390.74,813.552 2392.5,812.5 Z"/></g>
<g><path style="opacity:0.027" fill="#08417d" d="M 2366.5,852.5 C 2366.03,853.906 2365.03,854.573 2363.5,854.5C 2363.82,852.952 2364.82,852.285 2366.5,852.5 Z"/></g>
<g><path style="opacity:0.004" fill="#0a3b7d" d="M 2354.5,867.5 C 2353.5,869.167 2352.17,870.5 2350.5,871.5C 2350.83,869.167 2352.17,867.833 2354.5,867.5 Z"/></g>
<g><path style="opacity:0.004" fill="#0c172a" d="M 742.5,878.5 C 742.5,879.833 741.833,880.5 740.5,880.5C 740.5,879.167 741.167,878.5 742.5,878.5 Z"/></g>
<g><path style="opacity:0.129" fill="#0a3060" d="M 538.5,880.5 C 538.715,882.179 538.048,883.179 536.5,883.5C 536.427,881.973 537.094,880.973 538.5,880.5 Z"/></g>
<g><path style="opacity:0.024" fill="#09417d" d="M 1792.5,895.5 C 1792.71,897.179 1792.05,898.179 1790.5,898.5C 1790.43,896.973 1791.09,895.973 1792.5,895.5 Z"/></g>
<g><path style="opacity:0.004" fill="#0e192f" d="M 2324.5,902.5 C 2324.5,903.833 2323.83,904.5 2322.5,904.5C 2322.83,903.5 2323.5,902.833 2324.5,902.5 Z"/></g>
<g><path style="opacity:0.004" fill="#0735b5" d="M 2318.5,910.5 C 2317.55,913.115 2315.88,915.115 2313.5,916.5C 2313.28,915.325 2313.61,914.325 2314.5,913.5C 2315.64,912.174 2316.98,911.174 2318.5,910.5 Z"/></g>
<g><path style="opacity:0.004" fill="#0c2346" d="M 2309.5,922.5 C 2308.71,923.401 2307.71,924.068 2306.5,924.5C 2306.82,922.952 2307.82,922.285 2309.5,922.5 Z"/></g>
<g><path style="opacity:0.306" fill="#0b2d5a" d="M 505.5,936.5 C 505.715,938.179 505.048,939.179 503.5,939.5C 503.932,938.29 504.599,937.29 505.5,936.5 Z"/></g>
<g><path style="opacity:0.004" fill="#0d1026" d="M 2256.5,986.5 C 2257.04,986.56 2257.38,986.893 2257.5,987.5C 2256.68,988.386 2255.68,988.719 2254.5,988.5C 2254.83,987.5 2255.5,986.833 2256.5,986.5 Z"/></g>
<g><path style="opacity:0.333" fill="#0a2b58" d="M 480.5,985.5 C 480.843,987.483 480.176,988.817 478.5,989.5C 478.989,988.005 479.655,986.671 480.5,985.5 Z"/></g>
<g><path style="opacity:0.075" fill="#0c4e8c" d="M 1715.5,987.5 C 1715.84,989.483 1715.18,990.817 1713.5,991.5C 1713.23,989.62 1713.9,988.287 1715.5,987.5 Z"/></g>
<g><path style="opacity:0.004" fill="#000000" d="M 1704.5,996.5 C 1705.83,997.167 1705.83,997.167 1704.5,996.5 Z"/></g>
<g><path style="opacity:0.008" fill="#061f97" d="M 2248.5,994.5 C 2247.92,996.749 2246.59,998.415 2244.5,999.5C 2245.08,997.251 2246.41,995.585 2248.5,994.5 Z"/></g>
<g><path style="opacity:0.286" fill="#103261" d="M 650.5,1013.5 C 650.34,1015.15 649.674,1016.49 648.5,1017.5C 648.157,1015.52 648.824,1014.18 650.5,1013.5 Z"/></g>
<g><path style="opacity:0.367" fill="#0e3670" d="M 466.5,1017.5 C 466.5,1019.17 466.5,1020.83 466.5,1022.5C 465.5,1022.5 464.5,1022.5 463.5,1022.5C 463.953,1020.43 464.953,1018.77 466.5,1017.5 Z"/></g>
<g><path style="opacity:0.004" fill="#051f6b" d="M 2206.5,1045.5 C 2206.57,1047.03 2205.91,1048.03 2204.5,1048.5C 2204.43,1046.97 2205.09,1045.97 2206.5,1045.5 Z"/></g>
<g><path style="opacity:0.004" fill="#072547" d="M 1658.5,1057.5 C 1658.16,1058.34 1657.49,1058.67 1656.5,1058.5C 1656.41,1056.3 1657.08,1055.97 1658.5,1057.5 Z"/></g>
<g><path style="opacity:0.253" fill="#0b264d" d="M 627.5,1059.5 C 627.771,1061.38 627.104,1062.71 625.5,1063.5C 625.157,1061.52 625.824,1060.18 627.5,1059.5 Z"/></g>
<g><path style="opacity:0.004" fill="#00050d" d="M 2177.5,1082.5 C 2178.83,1083.17 2178.83,1083.17 2177.5,1082.5 Z"/></g>
<g><path style="opacity:0.498" fill="#114082" d="M 440.5,1084.5 C 441.93,1086.45 441.597,1088.12 439.5,1089.5C 439.167,1089.5 438.833,1089.5 438.5,1089.5C 439.024,1087.69 439.691,1086.03 440.5,1084.5 Z"/></g>
<g><path style="opacity:0.518" fill="#103ab4" d="M 438.5,1089.5 C 438.833,1089.5 439.167,1089.5 439.5,1089.5C 439.923,1091.78 439.256,1093.45 437.5,1094.5C 437.366,1092.71 437.699,1091.04 438.5,1089.5 Z"/></g>
<g><path style="opacity:0.035" fill="#103b72" d="M 2163.5,1097.5 C 2163,1099.48 2162.5,1101.48 2162,1103.5C 2161.62,1102.94 2161.12,1102.61 2160.5,1102.5C 2160.59,1100.15 2161.59,1098.49 2163.5,1097.5 Z"/></g>
<g><path style="opacity:0.314" fill="#0d356b" d="M 428.5,1119.5 C 429.497,1119.47 430.164,1119.97 430.5,1121C 430.252,1122.75 429.252,1123.58 427.5,1123.5C 428.234,1122.29 428.567,1120.96 428.5,1119.5 Z"/></g>
<g><path style="opacity:0.004" fill="#093059" d="M 2147.5,1117.5 C 2146.4,1118.4 2146.4,1119.23 2147.5,1120C 2146.91,1120.46 2146.24,1120.63 2145.5,1120.5C 2145.29,1118.82 2145.95,1117.82 2147.5,1117.5 Z"/></g>
<g><path style="opacity:0.004" fill="#0f3b81" d="M 2141.5,1125.5 C 2140.17,1127.5 2138.5,1129.17 2136.5,1130.5C 2137.17,1127.83 2138.83,1126.17 2141.5,1125.5 Z"/></g>
<g><path style="opacity:0.008" fill="#021d3e" d="M 2122.5,1148.5 C 2122.17,1149.5 2121.5,1150.17 2120.5,1150.5C 2120.5,1149.17 2121.17,1148.5 2122.5,1148.5 Z"/></g>
<g><path style="opacity:0.027" fill="#033779" d="M 1576.5,1155.5 C 1576.71,1157.18 1576.05,1158.18 1574.5,1158.5C 1574.93,1157.29 1575.6,1156.29 1576.5,1155.5 Z"/></g>
<g><path style="opacity:0.004" fill="#000067" d="M 1558.5,1177.5 C 1557.83,1176.17 1557.83,1176.17 1558.5,1177.5 Z"/></g>
<g><path style="opacity:0.004" fill="#0051f1" d="M 2092.5,1185.5 C 2093.83,1186.17 2093.83,1186.17 2092.5,1185.5 Z"/></g>
<g><path style="opacity:0.008" fill="#08206a" d="M 2089.5,1187.5 C 2089.57,1189.03 2088.91,1190.03 2087.5,1190.5C 2087.5,1190.17 2087.5,1189.83 2087.5,1189.5C 2087.83,1188.5 2088.5,1187.83 2089.5,1187.5 Z"/></g>
<g><path style="opacity:0.004" fill="#0a2fbc" d="M 2087.5,1189.5 C 2087.5,1189.83 2087.5,1190.17 2087.5,1190.5C 2086.83,1191.83 2085.83,1192.83 2084.5,1193.5C 2084.74,1191.6 2085.74,1190.26 2087.5,1189.5 Z"/></g>
<g><path style="opacity:0.728" fill="#1972e7" d="M 899.5,1192.5 C 899.694,1194.91 901.027,1195.91 903.5,1195.5C 903.5,1194.5 903.5,1193.5 903.5,1192.5C 933.907,1192.17 964.24,1192.51 994.5,1193.5C 994.833,1194.5 995.5,1195.17 996.5,1195.5C 996.435,1195.94 996.601,1196.27 997,1196.5C 997.333,1195.83 997.667,1195.17 998,1194.5C 998.309,1195.77 998.809,1196.93 999.5,1198C 1007.06,1199.46 1014.39,1201.46 1021.5,1204C 1023.79,1207.09 1026.62,1208.25 1030,1207.5C 1040.56,1212.86 1050.72,1218.86 1060.5,1225.5C 1060.5,1226.83 1061.17,1227.5 1062.5,1227.5C 1065.47,1227.63 1067.47,1229.13 1068.5,1232C 1069.94,1232.22 1071.27,1232.72 1072.5,1233.5C 1076.43,1237.05 1080.26,1240.72 1084,1244.5C 1084.38,1243.94 1084.88,1243.61 1085.5,1243.5C 1085.23,1245.38 1085.9,1246.71 1087.5,1247.5C 1088.49,1247.33 1089.16,1247.66 1089.5,1248.5C 1089.83,1250.83 1091.17,1252.17 1093.5,1252.5C 1097.08,1254.41 1100.08,1257.08 1102.5,1260.5C 1113.14,1269.16 1123.81,1277.83 1134.5,1286.5C 1138.6,1290.83 1143.1,1294.83 1148,1298.5C 1163.2,1312.15 1179.04,1325.82 1195.5,1339.5C 1195.5,1340.83 1195.5,1342.17 1195.5,1343.5C 1196.83,1343.5 1198.17,1343.5 1199.5,1343.5C 1209.53,1351.87 1219.53,1360.2 1229.5,1368.5C 1235.03,1373.1 1240.36,1377.94 1245.5,1383C 1246.45,1383.48 1247.45,1383.65 1248.5,1383.5C 1248.3,1385.39 1248.96,1386.89 1250.5,1388C 1257.02,1393.68 1263.68,1399.18 1270.5,1404.5C 1270.37,1405.24 1270.54,1405.91 1271,1406.5C 1271.69,1407.74 1272.19,1407.74 1272.5,1406.5C 1275.3,1409.08 1278.3,1411.42 1281.5,1413.5C 1297.47,1427.64 1313.64,1441.64 1330,1455.5C 1338.64,1443.86 1347.98,1432.86 1358,1422.5C 1359.77,1419.58 1361.27,1416.58 1362.5,1413.5C 1363.82,1413.67 1364.99,1413.34 1366,1412.5C 1380.07,1393.68 1395.07,1375.68 1411,1358.5C 1414,1354.21 1417,1349.88 1420,1345.5C 1420.67,1344.75 1421.5,1344.41 1422.5,1344.5C 1419.94,1346.68 1419.94,1348.84 1422.5,1351C 1422.53,1353.26 1422.2,1355.59 1421.5,1358C 1419.48,1359.69 1417.81,1361.69 1416.5,1364C 1415.55,1364.48 1414.55,1364.65 1413.5,1364.5C 1413.77,1366.45 1413.11,1367.95 1411.5,1369C 1412.43,1369.39 1413.09,1370.05 1413.5,1371C 1412.99,1372.83 1412.16,1372.99 1411,1371.5C 1403.28,1379 1396.78,1387 1391.5,1395.5C 1387.65,1399.18 1383.98,1403.02 1380.5,1407C 1379.55,1407.48 1378.55,1407.65 1377.5,1407.5C 1377.8,1409.6 1377.47,1411.6 1376.5,1413.5C 1371.54,1419.46 1366.21,1425.13 1360.5,1430.5C 1359.7,1432.08 1359.2,1433.74 1359,1435.5C 1355.74,1437.88 1352.58,1440.38 1349.5,1443C 1350.45,1443.72 1350.62,1444.55 1350,1445.5C 1347.51,1446.99 1345.35,1448.82 1343.5,1451C 1344.17,1451.33 1344.83,1451.67 1345.5,1452C 1342.34,1455.32 1339.01,1458.49 1335.5,1461.5C 1337.29,1463.03 1339.29,1464.03 1341.5,1464.5C 1341.85,1469.36 1344.51,1472.03 1349.5,1472.5C 1350.47,1476.15 1352.81,1477.81 1356.5,1477.5C 1356.5,1478.5 1356.5,1479.5 1356.5,1480.5C 1358.48,1480.38 1360.15,1481.05 1361.5,1482.5C 1366.9,1487.1 1371.9,1492.1 1376.5,1497.5C 1378.07,1498.31 1379.74,1498.64 1381.5,1498.5C 1381.5,1499.83 1381.5,1501.17 1381.5,1502.5C 1387.97,1504.76 1392.97,1508.92 1396.5,1515C 1400.43,1516.09 1402.76,1518.59 1403.5,1522.5C 1405.74,1523.45 1408.07,1524.12 1410.5,1524.5C 1410.5,1525.5 1410.5,1526.5 1410.5,1527.5C 1415.44,1530.75 1420.44,1534.08 1425.5,1537.5C 1428.29,1541.76 1431.62,1545.59 1435.5,1549C 1439.3,1550.66 1442.97,1552.49 1446.5,1554.5C 1446.35,1555.55 1446.52,1556.55 1447,1557.5C 1450.59,1560.38 1454.09,1563.38 1457.5,1566.5C 1459.22,1570.38 1462.22,1572.55 1466.5,1573C 1468.67,1577.02 1472.01,1579.18 1476.5,1579.5C 1476.69,1582.33 1477.36,1585 1478.5,1587.5C 1480.31,1587.49 1481.98,1587.99 1483.5,1589C 1486,1591.71 1489,1593.71 1492.5,1595C 1493.26,1597.07 1493.76,1599.24 1494,1601.5C 1494.39,1600.57 1495.05,1599.91 1496,1599.5C 1500.51,1603.68 1504.68,1608.18 1508.5,1613C 1509.62,1613.25 1510.62,1613.75 1511.5,1614.5C 1508.38,1618.25 1505.05,1618.25 1501.5,1614.5C 1499.47,1610.46 1496.47,1607.46 1492.5,1605.5C 1489.79,1605.75 1487.46,1604.58 1485.5,1602C 1486.83,1601 1486.83,1600 1485.5,1599C 1484.23,1598.69 1483.07,1598.19 1482,1597.5C 1481.67,1597.83 1481.33,1598.17 1481,1598.5C 1478.55,1594.31 1475.05,1591.81 1470.5,1591C 1470.83,1590.67 1471.17,1590.33 1471.5,1590C 1470.07,1589.53 1468.9,1588.7 1468,1587.5C 1467.67,1588.17 1467.33,1588.83 1467,1589.5C 1465.96,1588.38 1465.29,1587.04 1465,1585.5C 1461.98,1586.33 1460.48,1585 1460.5,1581.5C 1456.05,1579.55 1451.38,1578.22 1446.5,1577.5C 1446.5,1576.5 1446.5,1575.5 1446.5,1574.5C 1443.86,1574.84 1441.52,1574.17 1439.5,1572.5C 1437.38,1573.87 1436.38,1573.2 1436.5,1570.5C 1432.83,1570.5 1429.17,1570.5 1425.5,1570.5C 1425.5,1569.5 1425.5,1568.5 1425.5,1567.5C 1423.33,1567.42 1421.33,1566.75 1419.5,1565.5C 1418.17,1565.83 1416.83,1566.17 1415.5,1566.5C 1411.43,1564.91 1407.26,1563.57 1403,1562.5C 1401.56,1562.56 1400.23,1562.89 1399,1563.5C 1398.5,1562.33 1397.67,1561.5 1396.5,1561C 1386.53,1559.12 1376.36,1558.28 1366,1558.5C 1354.98,1558.32 1344.15,1559.16 1333.5,1561C 1331.77,1563.65 1329.44,1564.15 1326.5,1562.5C 1319.22,1564.45 1312.22,1566.11 1305.5,1567.5C 1305.5,1568.5 1305.5,1569.5 1305.5,1570.5C 1298.26,1570.98 1291.26,1572.31 1284.5,1574.5C 1284.5,1575.5 1284.5,1576.5 1284.5,1577.5C 1280.56,1579.71 1275.9,1581.04 1270.5,1581.5C 1270.63,1585.4 1268.96,1586.9 1265.5,1586C 1258.78,1590.91 1251.78,1595.41 1244.5,1599.5C 1236.58,1606.75 1228.58,1614.75 1220.5,1623.5C 1219.26,1624.25 1217.93,1624.58 1216.5,1624.5C 1216.8,1626.6 1216.47,1628.6 1215.5,1630.5C 1214.91,1630.29 1214.41,1629.96 1214,1629.5C 1212.92,1630.67 1212.08,1632 1211.5,1633.5C 1210.09,1634.24 1208.76,1635.08 1207.5,1636C 1208.3,1640.38 1206.3,1642.54 1201.5,1642.5C 1199.91,1648.75 1196.91,1654.25 1192.5,1659C 1193.17,1659.33 1193.83,1659.67 1194.5,1660C 1193.23,1660.31 1192.07,1660.81 1191,1661.5C 1188.65,1665.2 1187.15,1669.2 1186.5,1673.5C 1185.5,1673.5 1184.5,1673.5 1183.5,1673.5C 1181.87,1679.76 1180.54,1686.1 1179.5,1692.5C 1177.06,1692.35 1176.39,1693.19 1177.5,1695C 1175.17,1699.67 1172.83,1704.33 1170.5,1709C 1172.02,1710.9 1172.68,1713.06 1172.5,1715.5C 1171.5,1715.5 1170.5,1715.5 1169.5,1715.5C 1169.67,1723.17 1169.5,1730.84 1169,1738.5C 1168.29,1739.97 1167.12,1740.64 1165.5,1740.5C 1165.5,1752.5 1165.5,1764.5 1165.5,1776.5C 1166.82,1776.33 1167.99,1776.66 1169,1777.5C 1169.98,1781.42 1169.48,1785.09 1167.5,1788.5C 1169.31,1791.9 1169.98,1795.57 1169.5,1799.5C 1170.5,1799.5 1171.5,1799.5 1172.5,1799.5C 1172.84,1802.16 1172.17,1804.49 1170.5,1806.5C 1172.67,1811.15 1175,1815.65 1177.5,1820C 1176.58,1822.04 1176.24,1824.21 1176.5,1826.5C 1180.28,1827.19 1180.28,1828.36 1176.5,1830C 1178.22,1830.74 1179.89,1831.57 1181.5,1832.5C 1182.35,1835.55 1183.35,1838.55 1184.5,1841.5C 1185.45,1840.67 1186.45,1840.51 1187.5,1841C 1186.55,1847.42 1188.88,1852.42 1194.5,1856C 1193.69,1856.31 1193.03,1856.81 1192.5,1857.5C 1194,1858.84 1194.67,1860.51 1194.5,1862.5C 1195.82,1862.33 1196.99,1862.66 1198,1863.5C 1199.46,1866.77 1200.63,1870.1 1201.5,1873.5C 1203.5,1874.17 1205.5,1874.83 1207.5,1875.5C 1206.62,1880.39 1208.62,1882.89 1213.5,1883C 1213.17,1883.33 1212.83,1883.67 1212.5,1884C 1214.92,1885.57 1216.26,1887.74 1216.5,1890.5C 1217.5,1890.5 1218.5,1890.5 1219.5,1890.5C 1219.35,1891.55 1219.52,1892.55 1220,1893.5C 1223.2,1895.37 1225.7,1897.87 1227.5,1901C 1227.17,1901.33 1226.83,1901.67 1226.5,1902C 1231.11,1902.44 1233.45,1904.94 1233.5,1909.5C 1238.45,1909.53 1242.12,1911.69 1244.5,1916C 1249.08,1917.62 1252.42,1920.62 1254.5,1925C 1259.73,1927.87 1265.06,1930.7 1270.5,1933.5C 1271.26,1934.72 1272.26,1935.72 1273.5,1936.5C 1271.9,1937.2 1270.57,1938.37 1269.5,1940C 1270.45,1940.62 1271.28,1940.45 1272,1939.5C 1272.49,1941.13 1272.66,1942.8 1272.5,1944.5C 1250.6,1934.29 1230.26,1920.46 1211.5,1903C 1210.55,1902.38 1209.72,1902.55 1209,1903.5C 1208.67,1902.5 1208.33,1901.5 1208,1900.5C 1201.66,1895 1195.5,1889.33 1189.5,1883.5C 1189.03,1882.09 1188.03,1881.43 1186.5,1881.5C 1168.13,1865.34 1149.46,1849.67 1130.5,1834.5C 1130.71,1832.82 1130.05,1831.82 1128.5,1831.5C 1127.5,1831.17 1126.83,1830.5 1126.5,1829.5C 1124.29,1827.64 1122.96,1825.3 1122.5,1822.5C 1121.21,1822.26 1120.21,1822.6 1119.5,1823.5C 1112.68,1817.85 1106.01,1812.01 1099.5,1806C 1098.5,1805.67 1097.5,1805.33 1096.5,1805C 1088.64,1797.97 1080.97,1790.8 1073.5,1783.5C 1072.04,1781.54 1070.37,1779.7 1068.5,1778C 1067.56,1777.31 1066.9,1777.47 1066.5,1778.5C 1064.06,1776.97 1062.06,1774.97 1060.5,1772.5C 1059.74,1770.74 1058.4,1769.74 1056.5,1769.5C 1056.16,1768.66 1055.49,1768.33 1054.5,1768.5C 1054.5,1767.17 1053.83,1766.5 1052.5,1766.5C 1050.64,1765.06 1048.97,1763.39 1047.5,1761.5C 1046.22,1759.55 1044.55,1757.88 1042.5,1756.5C 1040.13,1755.8 1038.13,1754.46 1036.5,1752.5C 1035.11,1748.73 1032.78,1746.73 1029.5,1746.5C 1019.37,1736.69 1008.7,1727.69 997.5,1719.5C 997.715,1717.82 997.048,1716.82 995.5,1716.5C 982.933,1706.55 970.933,1696.55 959.5,1686.5C 959.5,1685.83 959.167,1685.5 958.5,1685.5C 957.694,1684.27 956.694,1683.27 955.5,1682.5C 954.221,1679.35 951.888,1677.35 948.5,1676.5C 942.789,1671.78 937.123,1667.11 931.5,1662.5C 931.573,1660.97 930.906,1659.97 929.5,1659.5C 907.451,1641.77 886.118,1623.44 865.5,1604.5C 864.415,1602.41 862.749,1601.08 860.5,1600.5C 849.45,1591.11 838.45,1581.77 827.5,1572.5C 826.762,1569.37 825.095,1568.04 822.5,1568.5C 819.876,1565.84 817.209,1563.18 814.5,1560.5C 813.5,1558.83 812.167,1557.5 810.5,1556.5C 809.833,1556.17 809.167,1555.83 808.5,1555.5C 808.5,1553.5 807.5,1552.5 805.5,1552.5C 805.167,1552.5 804.833,1552.5 804.5,1552.5C 804.5,1551.17 803.833,1550.5 802.5,1550.5C 798.869,1547.37 795.369,1544.04 792,1540.5C 787.533,1535.22 783.367,1529.89 779.5,1524.5C 779.167,1522.17 777.833,1520.83 775.5,1520.5C 773.236,1516.19 770.403,1512.19 767,1508.5C 766.648,1506.75 766.148,1505.09 765.5,1503.5C 765.5,1501.5 764.5,1500.5 762.5,1500.5C 759.177,1493.7 756.343,1486.7 754,1479.5C 752.167,1478.33 750.667,1476.83 749.5,1475C 750.2,1471.89 749.366,1469.06 747,1466.5C 746.151,1461.95 744.985,1457.62 743.5,1453.5C 743.5,1453.17 743.5,1452.83 743.5,1452.5C 743.573,1450.97 742.906,1449.97 741.5,1449.5C 741.5,1449.17 741.5,1448.83 741.5,1448.5C 741.737,1447.21 741.404,1446.21 740.5,1445.5C 740.773,1443.55 740.107,1442.05 738.5,1441C 738.922,1412.58 738.922,1384.58 738.5,1357C 739.823,1356.18 740.489,1355.02 740.5,1353.5C 741.434,1352.43 741.768,1351.1 741.5,1349.5C 742.839,1346.5 744.172,1343.5 745.5,1340.5C 746.586,1340.38 747.253,1339.71 747.5,1338.5C 747.253,1337.29 746.586,1336.62 745.5,1336.5C 745.926,1333.79 747.093,1331.46 749,1329.5C 749.453,1326.39 749.953,1323.73 750.5,1321.5C 751.833,1321.5 752.5,1320.83 752.5,1319.5C 753.6,1318.4 754.267,1317.06 754.5,1315.5C 756.176,1314.82 756.843,1313.48 756.5,1311.5C 757.226,1308.82 758.059,1306.15 759,1303.5C 761.215,1300.07 763.548,1296.74 766,1293.5C 766.016,1290.12 767.516,1287.78 770.5,1286.5C 772.408,1285.51 773.408,1283.85 773.5,1281.5C 774.028,1280.28 774.695,1279.11 775.5,1278C 775.167,1277.67 774.833,1277.33 774.5,1277C 784.649,1266.35 794.649,1255.52 804.5,1244.5C 811.917,1239.68 818.75,1234.02 825,1227.5C 825.333,1227.83 825.667,1228.17 826,1228.5C 827.715,1225.6 830.215,1224.27 833.5,1224.5C 833.281,1223.32 833.614,1222.32 834.5,1221.5C 843.294,1217.73 851.627,1213.23 859.5,1208C 861.5,1207.67 863.5,1207.33 865.5,1207C 868.205,1204.21 871.538,1202.87 875.5,1203C 876.716,1201.26 878.382,1200.26 880.5,1200C 883.372,1199.69 886.205,1199.19 889,1198.5C 889.945,1198.09 890.612,1197.43 891,1196.5C 892.159,1197.57 892.992,1197.23 893.5,1195.5C 894.5,1195.17 895.167,1194.5 895.5,1193.5C 896.833,1193.17 898.167,1192.83 899.5,1192.5 Z"/></g>
<g><path style="opacity:0.004" fill="#010614" d="M 895.5,1193.5 C 895.167,1194.5 894.5,1195.17 893.5,1195.5C 893.5,1194.17 894.167,1193.5 895.5,1193.5 Z"/></g>
<g><path style="opacity:0.012" fill="#0240c3" d="M 899.5,1192.5 C 900.833,1192.5 902.167,1192.5 903.5,1192.5C 903.5,1193.5 903.5,1194.5 903.5,1195.5C 901.027,1195.91 899.694,1194.91 899.5,1192.5 Z"/></g>
<g><path style="opacity:0.004" fill="#070c1e" d="M 994.5,1193.5 C 995.833,1193.5 996.5,1194.17 996.5,1195.5C 995.5,1195.17 994.833,1194.5 994.5,1193.5 Z"/></g>
<g><path style="opacity:0.004" fill="#06218d" d="M 2081.5,1197.5 C 2081.5,1199.5 2080.5,1200.5 2078.5,1200.5C 2079.17,1199.17 2080.17,1198.17 2081.5,1197.5 Z"/></g>
<g><path style="opacity:0.016" fill="#05295e" d="M 2077.5,1201.5 C 2077.57,1203.03 2076.91,1204.03 2075.5,1204.5C 2075.43,1202.97 2076.09,1201.97 2077.5,1201.5 Z"/></g>
<g><path style="opacity:0.004" fill="#00005b" d="M 2064.5,1220.5 C 2065.83,1221.17 2065.83,1221.17 2064.5,1220.5 Z"/></g>
<g><path style="opacity:0.004" fill="#092c77" d="M 1060.5,1225.5 C 1061.83,1225.5 1062.5,1226.17 1062.5,1227.5C 1062.5,1226.17 1061.83,1225.5 1060.5,1225.5 Z"/></g>
<g><path style="opacity:0.004" fill="#003a76" d="M 2056.5,1228.5 C 2056.03,1229.91 2055.03,1230.57 2053.5,1230.5C 2053.97,1229.09 2054.97,1228.43 2056.5,1228.5 Z"/></g>
<g><path style="opacity:0.008" fill="#0c3ab9" d="M 2052.5,1231.5 C 2051.55,1233.78 2050.22,1235.78 2048.5,1237.5C 2048.62,1234.71 2049.96,1232.71 2052.5,1231.5 Z"/></g>
<g><path style="opacity:0.004" fill="#072396" d="M 2048.5,1237.5 C 2048.61,1238.12 2048.94,1238.62 2049.5,1239C 2047,1240.67 2044.67,1242.5 2042.5,1244.5C 2043.76,1241.57 2045.76,1239.24 2048.5,1237.5 Z"/></g>
<g><path style="opacity:0.004" fill="#000305" d="M 804.5,1244.5 C 803.833,1243.17 803.833,1243.17 804.5,1244.5 Z"/></g>
<g><path style="opacity:0.004" fill="#062f6d" d="M 1085.5,1243.5 C 1086.67,1244.51 1087.34,1245.85 1087.5,1247.5C 1085.9,1246.71 1085.23,1245.38 1085.5,1243.5 Z"/></g>
<g><path style="opacity:0.431" fill="#0e2a53" d="M 399.5,1247.5 C 402.167,1248.5 402.167,1249.5 399.5,1250.5C 399.5,1249.5 399.5,1248.5 399.5,1247.5 Z"/></g>
<g><path style="opacity:0.031" fill="#092cae" d="M 1089.5,1248.5 C 1091.34,1249.4 1092.67,1250.74 1093.5,1252.5C 1091.17,1252.17 1089.83,1250.83 1089.5,1248.5 Z"/></g>
<g><path style="opacity:0.004" fill="#073d75" d="M 2034.5,1254.5 C 2033.83,1255.17 2033.17,1255.83 2032.5,1256.5C 2032.28,1255.32 2032.61,1254.32 2033.5,1253.5C 2034.11,1253.62 2034.44,1253.96 2034.5,1254.5 Z"/></g>
<g><path style="opacity:0.031" fill="#0831a6" d="M 1486.5,1266.5 C 1485.83,1269.17 1484.17,1270.83 1481.5,1271.5C 1480.47,1271.1 1480.31,1270.44 1481,1269.5C 1481.33,1269.83 1481.67,1270.17 1482,1270.5C 1483.37,1268.96 1484.87,1267.63 1486.5,1266.5 Z"/></g>
<g><path style="opacity:0.471" fill="#112b58" d="M 562.5,1273.5 C 562.5,1274.83 562.5,1276.17 562.5,1277.5C 561.414,1277.38 560.747,1276.71 560.5,1275.5C 560.747,1274.29 561.414,1273.62 562.5,1273.5 Z"/></g>
<g><path style="opacity:0.004" fill="#0b214a" d="M 2013.5,1280.5 C 2013.14,1282.19 2012.14,1283.19 2010.5,1283.5C 2010.86,1281.81 2011.86,1280.81 2013.5,1280.5 Z"/></g>
<g><path style="opacity:0.075" fill="#0f3abd" d="M 773.5,1281.5 C 773.408,1283.85 772.408,1285.51 770.5,1286.5C 770.75,1284.33 771.75,1282.66 773.5,1281.5 Z"/></g>
<g><path style="opacity:0.004" fill="#0061c0" d="M 1134.5,1285.5 C 1135.83,1286.17 1135.83,1286.17 1134.5,1285.5 Z"/></g>
<g><path style="opacity:0.008" fill="#092a52" d="M 2006.5,1288.5 C 2006.26,1290.4 2005.26,1291.74 2003.5,1292.5C 2003.74,1290.6 2004.74,1289.26 2006.5,1288.5 Z"/></g>
<g><path style="opacity:0.086" fill="#104a90" d="M 756.5,1311.5 C 756.843,1313.48 756.176,1314.82 754.5,1315.5C 754.157,1313.52 754.824,1312.18 756.5,1311.5 Z"/></g>
<g><path style="opacity:0.008" fill="#072bbc" d="M 1983.5,1315.5 C 1983.71,1317.18 1983.05,1318.18 1981.5,1318.5C 1981.29,1316.82 1981.95,1315.82 1983.5,1315.5 Z"/></g>
<g><path style="opacity:0.02" fill="#064580" d="M 752.5,1319.5 C 752.5,1320.83 751.833,1321.5 750.5,1321.5C 750.5,1320.17 751.167,1319.5 752.5,1319.5 Z"/></g>
<g><path style="opacity:0.486" fill="#0d2a53" d="M 390.5,1324.5 C 393.167,1325.5 393.167,1326.5 390.5,1327.5C 390.5,1326.5 390.5,1325.5 390.5,1324.5 Z"/></g>
<g><path style="opacity:0.043" fill="#0c4697" d="M 745.5,1336.5 C 746.586,1336.62 747.253,1337.29 747.5,1338.5C 747.253,1339.71 746.586,1340.38 745.5,1340.5C 745.5,1339.17 745.5,1337.83 745.5,1336.5 Z"/></g>
<g><path style="opacity:0.039" fill="#0c4f99" d="M 1195.5,1339.5 C 1196.5,1341.17 1197.83,1342.5 1199.5,1343.5C 1198.17,1343.5 1196.83,1343.5 1195.5,1343.5C 1195.5,1342.17 1195.5,1340.83 1195.5,1339.5 Z"/></g>
<g><path style="opacity:0.004" fill="#0636cb" d="M 1958.5,1346.5 C 1957.83,1347.83 1956.83,1348.83 1955.5,1349.5C 1955.69,1347.8 1956.52,1346.47 1958,1345.5C 1958.4,1345.73 1958.57,1346.06 1958.5,1346.5 Z"/></g>
<g><path style="opacity:0.004" fill="#0c1743" d="M 741.5,1349.5 C 741.768,1351.1 741.434,1352.43 740.5,1353.5C 739.876,1353.08 739.543,1352.42 739.5,1351.5C 739.747,1350.29 740.414,1349.62 741.5,1349.5 Z"/></g>
<g><path style="opacity:0.38" fill="#0b2e5d" d="M 2311.5,1362.5 C 2312.17,1362.5 2312.83,1362.5 2313.5,1362.5C 2312.83,1365.17 2312.17,1365.17 2311.5,1362.5 Z"/></g>
<g><path style="opacity:0.004" fill="#01203b" d="M 1229.5,1367.5 C 1230.83,1368.17 1230.83,1368.17 1229.5,1367.5 Z"/></g>
<g><path style="opacity:0.357" fill="#0b346c" d="M 2249.5,1370.5 C 2249.5,1371.5 2249.5,1372.5 2249.5,1373.5C 2248.21,1373.74 2247.21,1373.4 2246.5,1372.5C 2247.29,1371.6 2248.29,1370.93 2249.5,1370.5 Z"/></g>
<g><path style="opacity:0.004" fill="#061f45" d="M 1929.5,1382.5 C 1929.17,1383.5 1928.5,1384.17 1927.5,1384.5C 1927.5,1383.17 1928.17,1382.5 1929.5,1382.5 Z"/></g>
<g><path style="opacity:0.004" fill="#082143" d="M 1922.5,1389.5 C 1922.57,1391.03 1921.91,1392.03 1920.5,1392.5C 1920.29,1390.82 1920.95,1389.82 1922.5,1389.5 Z"/></g>
<g><path style="opacity:0.004" fill="#0d2bac" d="M 1917.5,1395.5 C 1917.61,1396.12 1917.94,1396.62 1918.5,1397C 1916.68,1398 1915.01,1399.16 1913.5,1400.5C 1914.08,1398.25 1915.41,1396.58 1917.5,1395.5 Z"/></g>
<g><path style="opacity:0.031" fill="#0e386e" d="M 1270.5,1404.5 C 1271.5,1404.83 1272.17,1405.5 1272.5,1406.5C 1272.19,1407.74 1271.69,1407.74 1271,1406.5C 1270.54,1405.91 1270.37,1405.24 1270.5,1404.5 Z"/></g>
<g><path style="opacity:0.004" fill="#0f2445" d="M 1281.5,1413.5 C 1281.37,1412.76 1281.54,1412.09 1282,1411.5C 1282.69,1412.44 1282.53,1413.1 1281.5,1413.5 Z"/></g>
<g><path style="opacity:0.494" fill="#0f2e5f" d="M 2372.5,1426.5 C 2372.5,1427.83 2372.5,1429.17 2372.5,1430.5C 2371.41,1430.38 2370.75,1429.71 2370.5,1428.5C 2370.75,1427.29 2371.41,1426.62 2372.5,1426.5 Z"/></g>
<g><path style="opacity:0.133" fill="#1358d3" d="M 1893.5,1425.5 C 1889.93,1430.42 1885.93,1435.08 1881.5,1439.5C 1883.3,1437.17 1884.47,1434.51 1885,1431.5C 1886.01,1430.66 1887.18,1430.33 1888.5,1430.5C 1888.34,1429.13 1888.51,1427.79 1889,1426.5C 1889.41,1426.96 1889.91,1427.29 1890.5,1427.5C 1891.27,1426.39 1892.27,1425.72 1893.5,1425.5 Z"/></g>
<g><path style="opacity:0.541" fill="#102954" d="M 553.5,1439.5 C 553.5,1440.83 553.5,1442.17 553.5,1443.5C 552.414,1443.38 551.747,1442.71 551.5,1441.5C 551.747,1440.29 552.414,1439.62 553.5,1439.5 Z"/></g>
<g><path style="opacity:0.388" fill="#0c1b37" d="M 387.5,1444.5 C 388.5,1444.5 389.5,1444.5 390.5,1444.5C 390.5,1445.83 390.5,1447.17 390.5,1448.5C 389.5,1448.5 388.5,1448.5 387.5,1448.5C 387.5,1447.17 387.5,1445.83 387.5,1444.5 Z"/></g>
<g><path style="opacity:0.008" fill="#013570" d="M 1877.5,1445.5 C 1877.07,1446.71 1876.4,1447.71 1875.5,1448.5C 1875.29,1446.82 1875.95,1445.82 1877.5,1445.5 Z"/></g>
<g><path style="opacity:0.004" fill="#0e192a" d="M 740.5,1445.5 C 741.404,1446.21 741.737,1447.21 741.5,1448.5C 739.204,1448.2 738.871,1447.2 740.5,1445.5 Z"/></g>
<g><path style="opacity:0.004" fill="#0a1249" d="M 741.5,1449.5 C 742.906,1449.97 743.573,1450.97 743.5,1452.5C 741.952,1452.18 741.285,1451.18 741.5,1449.5 Z"/></g>
<g><path style="opacity:0.004" fill="#000050" d="M 743.5,1453.5 C 742.833,1454.17 742.833,1454.17 743.5,1453.5 Z"/></g>
<g><path style="opacity:0.675" fill="#103c77" d="M 2204.5,1453.5 C 2205.59,1453.62 2206.25,1454.29 2206.5,1455.5C 2206.25,1456.71 2205.59,1457.38 2204.5,1457.5C 2204.5,1456.17 2204.5,1454.83 2204.5,1453.5 Z"/></g>
<g><path style="opacity:0.008" fill="#08163b" d="M 1835.5,1495.5 C 1837.03,1496.92 1836.7,1497.59 1834.5,1497.5C 1834.5,1497.17 1834.5,1496.83 1834.5,1496.5C 1834.5,1495.83 1834.83,1495.5 1835.5,1495.5 Z"/></g>
<g><path style="opacity:0.004" fill="#0735c5" d="M 1834.5,1496.5 C 1834.5,1496.83 1834.5,1497.17 1834.5,1497.5C 1833.49,1498.87 1832.49,1500.2 1831.5,1501.5C 1831.27,1499.07 1832.27,1497.4 1834.5,1496.5 Z"/></g>
<g><path style="opacity:0.004" fill="#0b2670" d="M 762.5,1500.5 C 764.5,1500.5 765.5,1501.5 765.5,1503.5C 764.167,1502.83 763.167,1501.83 762.5,1500.5 Z"/></g>
<g><path style="opacity:0.004" fill="#041baa" d="M 1829.5,1502.5 C 1829.07,1503.71 1828.4,1504.71 1827.5,1505.5C 1827.29,1503.82 1827.95,1502.82 1829.5,1502.5 Z"/></g>
<g><path style="opacity:0.22" fill="#143c76" d="M 560.5,1513.5 C 560.433,1514.96 560.766,1516.29 561.5,1517.5C 560.5,1517.5 559.5,1517.5 558.5,1517.5C 558.157,1515.52 558.824,1514.18 560.5,1513.5 Z"/></g>
<g><path style="opacity:0.024" fill="#023674" d="M 775.5,1520.5 C 777.833,1520.83 779.167,1522.17 779.5,1524.5C 777.833,1523.5 776.5,1522.17 775.5,1520.5 Z"/></g>
<g><path style="opacity:0.004" fill="#0d111c" d="M 1815.5,1521.5 C 1816.78,1522.39 1816.78,1523.39 1815.5,1524.5C 1814.91,1523.77 1814.91,1522.77 1815.5,1521.5 Z"/></g>
<g><path style="opacity:0.631" fill="#12346a" d="M 2361.5,1527.5 C 2361.5,1528.83 2361.5,1530.17 2361.5,1531.5C 2360.41,1531.38 2359.75,1530.71 2359.5,1529.5C 2359.75,1528.29 2360.41,1527.62 2361.5,1527.5 Z"/></g>
<g><path style="opacity:0.004" fill="#000000" d="M 797.5,1548.5 C 798.833,1549.17 798.833,1549.17 797.5,1548.5 Z"/></g>
<g><path style="opacity:0.004" fill="#051b9d" d="M 1791.5,1549.5 C 1791.5,1550.83 1790.83,1551.5 1789.5,1551.5C 1789.5,1550.17 1790.17,1549.5 1791.5,1549.5 Z"/></g>
<g><path style="opacity:0.004" fill="#012772" d="M 802.5,1550.5 C 803.833,1550.5 804.5,1551.17 804.5,1552.5C 803.167,1552.5 802.5,1551.83 802.5,1550.5 Z"/></g>
<g><path style="opacity:0.035" fill="#0b2b67" d="M 805.5,1552.5 C 807.5,1552.5 808.5,1553.5 808.5,1555.5C 807.167,1554.83 806.167,1553.83 805.5,1552.5 Z"/></g>
<g><path style="opacity:0.008" fill="#0d268a" d="M 810.5,1556.5 C 812.167,1557.5 813.5,1558.83 814.5,1560.5C 811.858,1560.51 810.525,1559.18 810.5,1556.5 Z"/></g>
<g><path style="opacity:1" fill="#186fe1" d="M 1548.5,1843.5 C 1547.93,1845.26 1547.09,1846.92 1546,1848.5C 1542.68,1851.98 1539.18,1855.32 1535.5,1858.5C 1536.75,1855.16 1537.58,1851.83 1538,1848.5C 1535.24,1852.35 1532.24,1856.02 1529,1859.5C 1527.88,1861.41 1527.04,1863.41 1526.5,1865.5C 1523.82,1869.47 1520.66,1873.13 1517,1876.5C 1516.21,1877.74 1515.71,1879.08 1515.5,1880.5C 1514.17,1881.5 1512.83,1882.5 1511.5,1883.5C 1507.32,1884.01 1504.65,1886.34 1503.5,1890.5C 1501.95,1891.45 1500.29,1891.79 1498.5,1891.5C 1497.28,1894.91 1495.78,1898.24 1494,1901.5C 1491.81,1903.24 1489.31,1904.4 1486.5,1905C 1486.83,1905.33 1487.17,1905.67 1487.5,1906C 1483.5,1907.25 1480.84,1909.75 1479.5,1913.5C 1470.57,1915.52 1463.24,1920.02 1457.5,1927C 1452.53,1928.23 1448.03,1930.4 1444,1933.5C 1439.93,1934.8 1435.76,1935.63 1431.5,1936C 1427.77,1938.13 1423.77,1939.47 1419.5,1940C 1415.42,1942.88 1410.75,1944.21 1405.5,1944C 1402.62,1944.44 1399.96,1945.44 1397.5,1947C 1378.92,1949.72 1360.26,1950.72 1341.5,1950C 1335.25,1948.31 1328.92,1947.14 1322.5,1946.5C 1321.7,1946.96 1321.37,1947.62 1321.5,1948.5C 1320.27,1948.28 1319.27,1947.61 1318.5,1946.5C 1317.83,1946.83 1317.17,1947.17 1316.5,1947.5C 1307.65,1945.83 1299.49,1942.5 1292,1937.5C 1286.95,1937.47 1282.45,1935.64 1278.5,1932C 1278.83,1931.67 1279.17,1931.33 1279.5,1931C 1274.36,1930.29 1269.7,1928.62 1265.5,1926C 1262.98,1923.24 1259.98,1921.24 1256.5,1920C 1253.5,1917.67 1250.83,1915 1248.5,1912C 1246.56,1911.19 1244.56,1910.69 1242.5,1910.5C 1242.65,1909.45 1242.48,1908.45 1242,1907.5C 1239.59,1905.71 1237.09,1904.04 1234.5,1902.5C 1220.44,1888.88 1208.11,1874.05 1197.5,1858C 1198.16,1855.67 1197.16,1854 1194.5,1853C 1195.6,1850.71 1194.77,1849.21 1192,1848.5C 1190.88,1843.31 1188.72,1838.64 1185.5,1834.5C 1185.83,1833.83 1186.17,1833.17 1186.5,1832.5C 1186.15,1831.3 1185.65,1831.3 1185,1832.5C 1183.92,1829.94 1183.42,1827.27 1183.5,1824.5C 1182.5,1824.5 1181.5,1824.5 1180.5,1824.5C 1178.23,1815.83 1176.89,1806.83 1176.5,1797.5C 1175.5,1797.5 1174.5,1797.5 1173.5,1797.5C 1172.95,1789.18 1172.61,1780.84 1172.5,1772.5C 1171.5,1772.5 1170.5,1772.5 1169.5,1772.5C 1169.17,1762.48 1169.5,1752.48 1170.5,1742.5C 1171.09,1742.29 1171.59,1741.96 1172,1741.5C 1172.52,1733.83 1173.02,1726.16 1173.5,1718.5C 1174.5,1718.5 1175.5,1718.5 1176.5,1718.5C 1176.78,1715.22 1176.45,1712.06 1175.5,1709C 1178.83,1704.06 1180.66,1698.56 1181,1692.5C 1183.19,1689.13 1185.03,1685.63 1186.5,1682C 1186.17,1681.67 1185.83,1681.33 1185.5,1681C 1188.27,1677.71 1190.11,1673.88 1191,1669.5C 1194.37,1666.49 1196.87,1662.33 1198.5,1657C 1200.46,1655.7 1201.63,1653.87 1202,1651.5C 1203.21,1650.93 1204.37,1650.26 1205.5,1649.5C 1204.67,1648.55 1204.51,1647.55 1205,1646.5C 1209.34,1640.21 1214.17,1634.21 1219.5,1628.5C 1229.48,1619.76 1239.15,1610.59 1248.5,1601C 1251.46,1600.61 1253.62,1599.11 1255,1596.5C 1255.33,1596.83 1255.67,1597.17 1256,1597.5C 1257.67,1595.37 1259.83,1594.04 1262.5,1593.5C 1264.19,1590.98 1266.36,1588.98 1269,1587.5C 1269.33,1588.17 1269.67,1588.83 1270,1589.5C 1275,1585.67 1280.17,1582 1285.5,1578.5C 1286.45,1578.99 1287.45,1579.32 1288.5,1579.5C 1292.17,1579.39 1295.17,1578.06 1297.5,1575.5C 1300.62,1575.19 1303.29,1574.02 1305.5,1572C 1332.05,1565.25 1358.89,1563.08 1386,1565.5C 1389.09,1565.48 1392.09,1565.14 1395,1564.5C 1395.48,1565.45 1395.65,1566.45 1395.5,1567.5C 1404.93,1567.62 1414.1,1568.96 1423,1571.5C 1425.09,1574.45 1427.76,1575.12 1431,1573.5C 1432.46,1574.92 1433.96,1576.25 1435.5,1577.5C 1437.46,1578.29 1439.46,1578.96 1441.5,1579.5C 1443.51,1578.65 1445.18,1579.32 1446.5,1581.5C 1447.09,1581.29 1447.59,1580.96 1448,1580.5C 1451.77,1583.92 1455.77,1586.92 1460,1589.5C 1460.33,1588.83 1460.67,1588.17 1461,1587.5C 1463.39,1589.77 1465.89,1591.93 1468.5,1594C 1472.83,1595.11 1476.17,1597.44 1478.5,1601C 1483.09,1602.95 1487.09,1605.62 1490.5,1609C 1492.62,1610.73 1494.12,1612.9 1495,1615.5C 1495.41,1615.04 1495.91,1614.71 1496.5,1614.5C 1501.49,1618.98 1506.32,1623.65 1511,1628.5C 1512.92,1632.76 1515.92,1636.09 1520,1638.5C 1522.19,1643.36 1525.19,1647.7 1529,1651.5C 1535.25,1663.3 1541.58,1675.64 1548,1688.5C 1551.16,1697.91 1554.16,1707.24 1557,1716.5C 1557.42,1720.93 1558.25,1725.26 1559.5,1729.5C 1558.9,1731.44 1558.57,1733.44 1558.5,1735.5C 1561.01,1754.99 1560.85,1774.33 1558,1793.5C 1553.44,1811.76 1548.27,1829.76 1542.5,1847.5C 1544.87,1846.8 1546.87,1845.46 1548.5,1843.5 Z"/></g>
<g><path style="opacity:0.004" fill="#093c7f" d="M 822.5,1568.5 C 825.095,1568.04 826.762,1569.37 827.5,1572.5C 825.833,1571.17 824.167,1569.83 822.5,1568.5 Z"/></g>
<g><path style="opacity:0.384" fill="#0c2fa4" d="M 2182.5,1575.5 C 2183.59,1575.62 2184.25,1576.29 2184.5,1577.5C 2184.25,1578.71 2183.59,1579.38 2182.5,1579.5C 2182.5,1578.17 2182.5,1576.83 2182.5,1575.5 Z"/></g>
<g><path style="opacity:0.008" fill="#002c55" d="M 1755.5,1594.5 C 1755.03,1595.91 1754.03,1596.57 1752.5,1596.5C 1752.97,1595.09 1753.97,1594.43 1755.5,1594.5 Z"/></g>
<g><path style="opacity:0.016" fill="#0d3f7f" d="M 1749.5,1599.5 C 1749.5,1600.83 1748.83,1601.5 1747.5,1601.5C 1747.5,1600.17 1748.17,1599.5 1749.5,1599.5 Z"/></g>
<g><path style="opacity:0.024" fill="#072aa0" d="M 860.5,1600.5 C 862.749,1601.08 864.415,1602.41 865.5,1604.5C 863.251,1603.92 861.585,1602.59 860.5,1600.5 Z"/></g>
<g><path style="opacity:0.302" fill="#09182f" d="M 2349.5,1607.5 C 2349.5,1608.5 2349.5,1609.5 2349.5,1610.5C 2346.83,1609.5 2346.83,1608.5 2349.5,1607.5 Z"/></g>
<g><path style="opacity:0.004" fill="#0535cb" d="M 1740.5,1610.5 C 1740.57,1612.03 1739.91,1613.03 1738.5,1613.5C 1738.43,1611.97 1739.09,1610.97 1740.5,1610.5 Z"/></g>
<g><path style="opacity:0.392" fill="#133568" d="M 587.5,1633.5 C 587.5,1634.83 587.5,1636.17 587.5,1637.5C 586.414,1637.38 585.747,1636.71 585.5,1635.5C 585.747,1634.29 586.414,1633.62 587.5,1633.5 Z"/></g>
<g><path style="opacity:0.561" fill="#0e3063" d="M 2343.5,1635.5 C 2343.5,1636.5 2343.5,1637.5 2343.5,1638.5C 2340.83,1637.5 2340.83,1636.5 2343.5,1635.5 Z"/></g>
<g><path style="opacity:0.004" fill="#061c4c" d="M 1719.5,1637.5 C 1719.07,1638.71 1718.4,1639.71 1717.5,1640.5C 1717.29,1638.82 1717.95,1637.82 1719.5,1637.5 Z"/></g>
<g><path style="opacity:0.004" fill="#0a2851" d="M 2342.5,1641.5 C 2342.01,1643 2341.34,1644.33 2340.5,1645.5C 2340.16,1643.52 2340.82,1642.18 2342.5,1641.5 Z"/></g>
<g><path style="opacity:0.004" fill="#071b8a" d="M 929.5,1659.5 C 930.906,1659.97 931.573,1660.97 931.5,1662.5C 930.094,1662.03 929.427,1661.03 929.5,1659.5 Z"/></g>
<g><path style="opacity:0.063" fill="#0c2244" d="M 599.5,1672.5 C 600.404,1673.21 600.737,1674.21 600.5,1675.5C 598.448,1674.95 598.115,1673.95 599.5,1672.5 Z"/></g>
<g><path style="opacity:0.067" fill="#06198b" d="M 2327.5,1675.5 C 2327.5,1676.5 2327.5,1677.5 2327.5,1678.5C 2324.83,1677.5 2324.83,1676.5 2327.5,1675.5 Z"/></g>
<g><path style="opacity:0.004" fill="#000000" d="M 948.5,1677.5 C 947.833,1678.17 947.833,1678.17 948.5,1677.5 Z"/></g>
<g><path style="opacity:0.004" fill="#0835af" d="M 948.5,1677.5 C 948.5,1677.17 948.5,1676.83 948.5,1676.5C 951.888,1677.35 954.221,1679.35 955.5,1682.5C 953.343,1680.59 951.009,1678.92 948.5,1677.5 Z"/></g>
<g><path style="opacity:0.004" fill="#0a2ab9" d="M 1681.5,1682.5 C 1681.5,1683.83 1680.83,1684.5 1679.5,1684.5C 1679.5,1683.17 1680.17,1682.5 1681.5,1682.5 Z"/></g>
<g><path style="opacity:0.004" fill="#00040d" d="M 958.5,1685.5 C 959.167,1685.5 959.5,1685.83 959.5,1686.5C 957.654,1687.74 957.321,1687.41 958.5,1685.5 Z"/></g>
<g><path style="opacity:0.008" fill="#09316e" d="M 1672.5,1693.5 C 1671.5,1695.17 1670.17,1696.5 1668.5,1697.5C 1668.83,1695.17 1670.17,1693.83 1672.5,1693.5 Z"/></g>
<g><path style="opacity:0.255" fill="#0c2243" d="M 2320.5,1698.5 C 2320.77,1700.1 2320.43,1701.43 2319.5,1702.5C 2318.88,1702.08 2318.54,1701.42 2318.5,1700.5C 2318.75,1699.29 2319.41,1698.62 2320.5,1698.5 Z"/></g>
<g><path style="opacity:0.004" fill="#0a2487" d="M 1664.5,1702.5 C 1664.57,1704.03 1663.91,1705.03 1662.5,1705.5C 1662.43,1703.97 1663.09,1702.97 1664.5,1702.5 Z"/></g>
<g><path style="opacity:0.01" fill="#124782" d="M 995.5,1716.5 C 997.048,1716.82 997.715,1717.82 997.5,1719.5C 996.094,1719.03 995.427,1718.03 995.5,1716.5 Z"/></g>
<g><path style="opacity:0.227" fill="#09162b" d="M 2313.5,1720.5 C 2313.44,1721.61 2313.11,1722.61 2312.5,1723.5C 2311.11,1722.05 2311.45,1721.05 2313.5,1720.5 Z"/></g>
<g><path style="opacity:0.004" fill="#01050a" d="M 999.5,1724.5 C 999.897,1723.47 1000.56,1723.31 1001.5,1724C 1000.91,1724.46 1000.24,1724.63 999.5,1724.5 Z"/></g>
<g><path style="opacity:0.004" fill="#044089" d="M 1642.5,1729.5 C 1642.26,1731.4 1641.26,1732.74 1639.5,1733.5C 1639.74,1731.6 1640.74,1730.26 1642.5,1729.5 Z"/></g>
<g><path style="opacity:0.231" fill="#0e3b79" d="M 2134.5,1726.5 C 2135.08,1729.29 2134.08,1730.95 2131.5,1731.5C 2131.95,1729.43 2132.95,1727.77 2134.5,1726.5 Z"/></g>
<g><path style="opacity:0.004" fill="#0d1120" d="M 1636.5,1737.5 C 1638.01,1739.84 1637.68,1740.5 1635.5,1739.5C 1635.33,1738.51 1635.66,1737.84 1636.5,1737.5 Z"/></g>
<g><path style="opacity:0.008" fill="#0d3bb2" d="M 1036.5,1752.5 C 1034.19,1750.52 1031.85,1748.52 1029.5,1746.5C 1032.78,1746.73 1035.11,1748.73 1036.5,1752.5 Z"/></g>
<g><path style="opacity:0.004" fill="#061e8f" d="M 1623.5,1753.5 C 1623.18,1755.05 1622.18,1755.71 1620.5,1755.5C 1620.97,1754.09 1621.97,1753.43 1623.5,1753.5 Z"/></g>
<g><path style="opacity:0.024" fill="#062cac" d="M 1620.5,1755.5 C 1620.34,1757.15 1619.67,1758.49 1618.5,1759.5C 1618.23,1757.62 1618.9,1756.29 1620.5,1755.5 Z"/></g>
<g><path style="opacity:0.008" fill="#061c94" d="M 634.5,1756.5 C 636.572,1758.35 637.905,1760.68 638.5,1763.5C 636.907,1762.65 635.74,1761.32 635,1759.5C 634.517,1758.55 634.351,1757.55 634.5,1756.5 Z"/></g>
<g><path style="opacity:0.008" fill="#03428b" d="M 1042.5,1756.5 C 1044.55,1757.88 1046.22,1759.55 1047.5,1761.5C 1044.81,1760.81 1043.14,1759.14 1042.5,1756.5 Z"/></g>
<g><path style="opacity:0.004" fill="#08162a" d="M 2297.5,1763.5 C 2296.89,1764.39 2296.56,1765.39 2296.5,1766.5C 2295.11,1765.05 2295.45,1764.05 2297.5,1763.5 Z"/></g>
<g><path style="opacity:0.141" fill="#0b2ca1" d="M 2117.5,1762.5 C 2116.59,1766.25 2114.92,1769.58 2112.5,1772.5C 2113.41,1768.75 2115.08,1765.42 2117.5,1762.5 Z"/></g>
<g><path style="opacity:0.004" fill="#052162" d="M 1052.5,1766.5 C 1053.83,1766.5 1054.5,1767.17 1054.5,1768.5C 1053.17,1768.5 1052.5,1767.83 1052.5,1766.5 Z"/></g>
<g><path style="opacity:0.055" fill="#081f3e" d="M 639.5,1766.5 C 641.104,1767.29 641.771,1768.62 641.5,1770.5C 640.326,1769.49 639.66,1768.15 639.5,1766.5 Z"/></g>
<g><path style="opacity:0.004" fill="#09207a" d="M 1056.5,1769.5 C 1058.4,1769.74 1059.74,1770.74 1060.5,1772.5C 1058.6,1772.26 1057.26,1771.26 1056.5,1769.5 Z"/></g>
<g><path style="opacity:0.004" fill="#0d38af" d="M 1066.5,1778.5 C 1066.9,1777.47 1067.56,1777.31 1068.5,1778C 1070.37,1779.7 1072.04,1781.54 1073.5,1783.5C 1070.91,1782.25 1068.57,1780.58 1066.5,1778.5 Z"/></g>
<g><path style="opacity:0.118" fill="#0d2140" d="M 2288.5,1784.5 C 2288.01,1786 2287.34,1787.33 2286.5,1788.5C 2286.16,1786.52 2286.82,1785.18 2288.5,1784.5 Z"/></g>
<g><path style="opacity:0.004" fill="#092288" d="M 1583.5,1801.5 C 1583.57,1803.03 1582.91,1804.03 1581.5,1804.5C 1581.43,1802.97 1582.09,1801.97 1583.5,1801.5 Z"/></g>
<g><path style="opacity:0.067" fill="#08244b" d="M 2094.5,1805.5 C 2094.71,1807.18 2094.05,1808.18 2092.5,1808.5C 2092.43,1806.97 2093.09,1805.97 2094.5,1805.5 Z"/></g>
<g><path style="opacity:0.078" fill="#1554d7" d="M 1126.5,1829.5 C 1123.57,1828.24 1121.24,1826.24 1119.5,1823.5C 1120.21,1822.6 1121.21,1822.26 1122.5,1822.5C 1122.96,1825.3 1124.29,1827.64 1126.5,1829.5 Z"/></g>
<g><path style="opacity:0.004" fill="#00010d" d="M 1117.5,1826.5 C 1117.9,1825.47 1118.56,1825.31 1119.5,1826C 1118.91,1826.46 1118.24,1826.63 1117.5,1826.5 Z"/></g>
<g><path style="opacity:0.333" fill="#092851" d="M 2083.5,1823.5 C 2083.71,1825.18 2083.05,1826.18 2081.5,1826.5C 2081.93,1825.29 2082.6,1824.29 2083.5,1823.5 Z"/></g>
<g><path style="opacity:0.141" fill="#0a2d5c" d="M 675.5,1830.5 C 676.906,1830.97 677.573,1831.97 677.5,1833.5C 675.952,1833.18 675.285,1832.18 675.5,1830.5 Z"/></g>
<g><path style="opacity:0.006" fill="#004483" d="M 1128.5,1831.5 C 1130.05,1831.82 1130.71,1832.82 1130.5,1834.5C 1129.09,1834.03 1128.43,1833.03 1128.5,1831.5 Z"/></g>
<g><path style="opacity:0.004" fill="#0c3e81" d="M 1555.5,1835.5 C 1554.5,1837.17 1553.17,1838.5 1551.5,1839.5C 1551.83,1837.17 1553.17,1835.83 1555.5,1835.5 Z"/></g>
<g><path style="opacity:0.02" fill="#072348" d="M 494.5,1844.5 C 496.048,1844.82 496.715,1845.82 496.5,1847.5C 495.599,1846.71 494.932,1845.71 494.5,1844.5 Z"/></g>
<g><path style="opacity:0.831" fill="#114c98" d="M 1535.5,1858.5 C 1532.95,1864.05 1529.61,1869.05 1525.5,1873.5C 1527.22,1869.51 1529.22,1865.67 1531.5,1862C 1531.33,1861.17 1531.17,1860.33 1531,1859.5C 1529.72,1861.75 1528.22,1863.75 1526.5,1865.5C 1527.04,1863.41 1527.88,1861.41 1529,1859.5C 1532.24,1856.02 1535.24,1852.35 1538,1848.5C 1537.58,1851.83 1536.75,1855.16 1535.5,1858.5 Z"/></g>
<g><path style="opacity:0.016" fill="#0b47ca" d="M 2249.5,1865.5 C 2248.32,1868.54 2246.65,1871.21 2244.5,1873.5C 2244.75,1870.99 2245.59,1868.65 2247,1866.5C 2247.67,1865.75 2248.5,1865.41 2249.5,1865.5 Z"/></g>
<g><path style="opacity:0.8" fill="#0d366c" d="M 1525.5,1873.5 C 1525.5,1874.17 1525.17,1874.5 1524.5,1874.5C 1523.83,1874.83 1523.17,1875.17 1522.5,1875.5C 1522.63,1874.76 1522.46,1874.09 1522,1873.5C 1519.6,1875.73 1517.43,1878.06 1515.5,1880.5C 1515.71,1879.08 1516.21,1877.74 1517,1876.5C 1520.66,1873.13 1523.82,1869.47 1526.5,1865.5C 1528.22,1863.75 1529.72,1861.75 1531,1859.5C 1531.17,1860.33 1531.33,1861.17 1531.5,1862C 1529.22,1865.67 1527.22,1869.51 1525.5,1873.5 Z"/></g>
<g><path style="opacity:0.016" fill="#083162" d="M 1186.5,1881.5 C 1188.03,1881.43 1189.03,1882.09 1189.5,1883.5C 1187.97,1883.57 1186.97,1882.91 1186.5,1881.5 Z"/></g>
<g><path style="opacity:0.071" fill="#0f52b0" d="M 1524.5,1874.5 C 1523.93,1876.26 1523.09,1877.92 1522,1879.5C 1517.33,1884.83 1512.67,1890.17 1508,1895.5C 1503.93,1900.08 1499.43,1904.08 1494.5,1907.5C 1493.83,1907.5 1493.17,1907.5 1492.5,1907.5C 1503.49,1897.84 1513.49,1887.18 1522.5,1875.5C 1523.17,1875.17 1523.83,1874.83 1524.5,1874.5 Z"/></g>
<g><path style="opacity:0.008" fill="#09259d" d="M 515.5,1883.5 C 517.912,1883.69 518.912,1885.03 518.5,1887.5C 517.026,1886.56 516.026,1885.23 515.5,1883.5 Z"/></g>
<g><path style="opacity:0.761" fill="#0c2b53" d="M 1522.5,1875.5 C 1513.49,1887.18 1503.49,1897.84 1492.5,1907.5C 1490.83,1908.83 1489.17,1910.17 1487.5,1911.5C 1486.66,1911.16 1486.33,1910.49 1486.5,1909.5C 1495.9,1901.94 1504.23,1893.28 1511.5,1883.5C 1512.83,1882.5 1514.17,1881.5 1515.5,1880.5C 1517.43,1878.06 1519.6,1875.73 1522,1873.5C 1522.46,1874.09 1522.63,1874.76 1522.5,1875.5 Z"/></g>
<g><path style="opacity:1" fill="#1561c5" d="M 1511.5,1883.5 C 1504.23,1893.28 1495.9,1901.94 1486.5,1909.5C 1483.72,1910.09 1481.39,1911.42 1479.5,1913.5C 1480.84,1909.75 1483.5,1907.25 1487.5,1906C 1487.17,1905.67 1486.83,1905.33 1486.5,1905C 1489.31,1904.4 1491.81,1903.24 1494,1901.5C 1495.78,1898.24 1497.28,1894.91 1498.5,1891.5C 1500.29,1891.79 1501.95,1891.45 1503.5,1890.5C 1504.65,1886.34 1507.32,1884.01 1511.5,1883.5 Z"/></g>
<g><path style="opacity:0.063" fill="#072042" d="M 2232.5,1894.5 C 2232.57,1896.03 2231.91,1897.03 2230.5,1897.5C 2230.29,1895.82 2230.95,1894.82 2232.5,1894.5 Z"/></g>
<g><path style="opacity:0.004" fill="#000204" d="M 1487.5,1915.5 C 1489.34,1915.64 1489.67,1916.31 1488.5,1917.5C 1487.7,1917.04 1487.37,1916.38 1487.5,1915.5 Z"/></g>
<g><path style="opacity:0.004" fill="#004ac9" d="M 1481.5,1919.5 C 1482.83,1920.17 1482.83,1920.17 1481.5,1919.5 Z"/></g>
<g><path style="opacity:0.016" fill="#082242" d="M 537.5,1919.5 C 539.048,1919.82 539.715,1920.82 539.5,1922.5C 538.599,1921.71 537.932,1920.71 537.5,1919.5 Z"/></g>
<g><path style="opacity:0.892" fill="#0e3b78" d="M 1486.5,1909.5 C 1486.33,1910.49 1486.66,1911.16 1487.5,1911.5C 1478.65,1919.01 1468.98,1925.34 1458.5,1930.5C 1457.51,1930.67 1456.84,1930.34 1456.5,1929.5C 1458.97,1927.76 1461.64,1926.26 1464.5,1925C 1466.77,1922.1 1469.77,1920.1 1473.5,1919C 1475.76,1917.38 1477.76,1915.55 1479.5,1913.5C 1481.39,1911.42 1483.72,1910.09 1486.5,1909.5 Z"/></g>
<g><path style="opacity:0.004" fill="#03158b" d="M 1466.5,1929.5 C 1466.63,1930.24 1466.46,1930.91 1466,1931.5C 1465.31,1932.74 1464.81,1932.74 1464.5,1931.5C 1464.83,1930.5 1465.5,1929.83 1466.5,1929.5 Z"/></g>
<g><path style="opacity:0.749" fill="#104a9c" d="M 2001.5,1934.5 C 2001.5,1935.83 2001.5,1937.17 2001.5,1938.5C 2000.21,1938.74 1999.21,1938.4 1998.5,1937.5C 1999.27,1936.31 2000.27,1935.31 2001.5,1934.5 Z"/></g>
<g><path style="opacity:0.004" fill="#06224f" d="M 1453.5,1936.5 C 1453.71,1938.18 1453.05,1939.18 1451.5,1939.5C 1451.43,1937.97 1452.09,1936.97 1453.5,1936.5 Z"/></g>
<g><path style="opacity:0.92" fill="#114c9a" d="M 1456.5,1929.5 C 1456.84,1930.34 1457.51,1930.67 1458.5,1930.5C 1453.24,1933.22 1447.91,1936.05 1442.5,1939C 1435.7,1941.01 1429.04,1943.18 1422.5,1945.5C 1420.01,1945.87 1419.34,1945.2 1420.5,1943.5C 1432.81,1939.7 1444.81,1935.03 1456.5,1929.5 Z"/></g>
<g><path style="opacity:0.133" fill="#0a2345" d="M 758.5,1940.5 C 759.5,1940.83 760.167,1941.5 760.5,1942.5C 760.44,1943.04 760.107,1943.38 759.5,1943.5C 758.614,1942.68 758.281,1941.68 758.5,1940.5 Z"/></g>
<g><path style="opacity:0.987" fill="#186bd8" d="M 1479.5,1913.5 C 1477.76,1915.55 1475.76,1917.38 1473.5,1919C 1469.77,1920.1 1466.77,1922.1 1464.5,1925C 1461.64,1926.26 1458.97,1927.76 1456.5,1929.5C 1444.81,1935.03 1432.81,1939.7 1420.5,1943.5C 1407.15,1946.44 1393.82,1949.28 1380.5,1952C 1382.47,1952.5 1384.47,1952.66 1386.5,1952.5C 1386.39,1953.12 1386.06,1953.62 1385.5,1954C 1368.11,1954.8 1350.78,1954.14 1333.5,1952C 1329.24,1951.24 1325.24,1950.08 1321.5,1948.5C 1321.37,1947.62 1321.7,1946.96 1322.5,1946.5C 1328.92,1947.14 1335.25,1948.31 1341.5,1950C 1360.26,1950.72 1378.92,1949.72 1397.5,1947C 1399.96,1945.44 1402.62,1944.44 1405.5,1944C 1410.75,1944.21 1415.42,1942.88 1419.5,1940C 1423.77,1939.47 1427.77,1938.13 1431.5,1936C 1435.76,1935.63 1439.93,1934.8 1444,1933.5C 1448.03,1930.4 1452.53,1928.23 1457.5,1927C 1463.24,1920.02 1470.57,1915.52 1479.5,1913.5 Z"/></g>
<g><path style="opacity:0.966" fill="#145cbb" d="M 1420.5,1943.5 C 1419.34,1945.2 1420.01,1945.87 1422.5,1945.5C 1410.88,1949.29 1398.88,1951.63 1386.5,1952.5C 1384.47,1952.66 1382.47,1952.5 1380.5,1952C 1393.82,1949.28 1407.15,1946.44 1420.5,1943.5 Z"/></g>
<g><path style="opacity:0.004" fill="#011433" d="M 1424.5,1950.5 C 1424.17,1951.5 1423.5,1952.17 1422.5,1952.5C 1422.5,1951.17 1423.17,1950.5 1424.5,1950.5 Z"/></g>
<g><path style="opacity:0.012" fill="#061733" d="M 1413.5,1953.5 C 1412.83,1953.83 1412.17,1954.17 1411.5,1954.5C 1411.71,1952.58 1412.38,1952.24 1413.5,1953.5 Z"/></g>
<g><path style="opacity:0.008" fill="#033465" d="M 1298.5,1953.5 C 1299.5,1952.17 1300.5,1952.17 1301.5,1953.5C 1301.5,1953.83 1301.5,1954.17 1301.5,1954.5C 1300.61,1953.89 1299.61,1953.56 1298.5,1953.5 Z"/></g>
<g><path style="opacity:0.02" fill="#053bc1" d="M 1409.5,1955.5 C 1409.17,1956.17 1408.83,1956.83 1408.5,1957.5C 1407.21,1957.26 1406.21,1957.6 1405.5,1958.5C 1403.5,1958.5 1401.5,1958.5 1399.5,1958.5C 1402.51,1957.03 1405.68,1955.7 1409,1954.5C 1409.4,1954.73 1409.57,1955.06 1409.5,1955.5 Z"/></g>
<g><path style="opacity:0.012" fill="#0328a5" d="M 1301.5,1953.5 C 1304.84,1955.58 1308.5,1956.91 1312.5,1957.5C 1313.3,1957.96 1313.63,1958.62 1313.5,1959.5C 1311.41,1958.82 1309.41,1958.49 1307.5,1958.5C 1306.79,1957.6 1305.79,1957.26 1304.5,1957.5C 1303.31,1956.73 1302.31,1955.73 1301.5,1954.5C 1301.5,1954.17 1301.5,1953.83 1301.5,1953.5 Z"/></g>
<g><path style="opacity:0.004" fill="#02000e" d="M 1304.5,1957.5 C 1305.79,1957.26 1306.79,1957.6 1307.5,1958.5C 1306.05,1959.89 1305.05,1959.55 1304.5,1957.5 Z"/></g>
<g><path style="opacity:0.004" fill="#01000c" d="M 1408.5,1957.5 C 1407.95,1959.55 1406.95,1959.89 1405.5,1958.5C 1406.21,1957.6 1407.21,1957.26 1408.5,1957.5 Z"/></g>
<g><path style="opacity:0.192" fill="#0d182c" d="M 787.5,1971.5 C 790.167,1973.5 792.5,1975.83 794.5,1978.5C 794.565,1978.94 794.399,1979.27 794,1979.5C 791.218,1977.23 789.051,1974.56 787.5,1971.5 Z"/></g>
<g><path style="opacity:0.118" fill="#0d3972" d="M 580.5,1982.5 C 582.5,1982.5 583.5,1983.5 583.5,1985.5C 582.167,1984.83 581.167,1983.83 580.5,1982.5 Z"/></g>
<g><path style="opacity:0.459" fill="#104277" d="M 1950.5,1987.5 C 1950.72,1988.68 1950.39,1989.68 1949.5,1990.5C 1948.89,1990.38 1948.56,1990.04 1948.5,1989.5C 1949.17,1988.83 1949.83,1988.17 1950.5,1987.5 Z"/></g>
<g><path style="opacity:0.275" fill="#0d3168" d="M 614.5,2025.5 C 616.912,2025.69 617.912,2027.03 617.5,2029.5C 616.512,2028.2 615.512,2026.87 614.5,2025.5 Z"/></g>
<g><path style="opacity:0.255" fill="#0e386f" d="M 2121.5,2047.5 C 2120.83,2048.83 2119.83,2049.83 2118.5,2050.5C 2118.5,2049.5 2118.5,2048.5 2118.5,2047.5C 2119.5,2047.5 2120.5,2047.5 2121.5,2047.5 Z"/></g>
<g><path style="opacity:0.108" fill="#0a2b5a" d="M 640.5,2055.5 C 639.5,2055.17 638.833,2054.5 638.5,2053.5C 638.56,2052.96 638.893,2052.62 639.5,2052.5C 640.386,2053.32 640.719,2054.32 640.5,2055.5 Z"/></g>
<g><path style="opacity:0.02" fill="#080f44" d="M 2101.5,2069.5 C 2100.83,2070.83 2099.83,2071.83 2098.5,2072.5C 2098.5,2070.5 2099.5,2069.5 2101.5,2069.5 Z"/></g>
<g><path style="opacity:0.141" fill="#08142d" d="M 663.5,2080.5 C 665.833,2080.83 667.167,2082.17 667.5,2084.5C 665.833,2083.5 664.5,2082.17 663.5,2080.5 Z"/></g>
<g><path style="opacity:0.008" fill="#091867" d="M 685.5,2101.5 C 683.596,2101.26 682.262,2100.26 681.5,2098.5C 683.129,2098.37 684.462,2099.37 685.5,2101.5 Z"/></g>
<g><path style="opacity:0.073" fill="#102e5b" d="M 685.5,2101.5 C 687.048,2101.82 687.715,2102.82 687.5,2104.5C 686.094,2104.03 685.427,2103.03 685.5,2101.5 Z"/></g>
<g><path style="opacity:0.376" fill="#0d3167" d="M 1794.5,2104.5 C 1794.33,2107.05 1793.33,2107.72 1791.5,2106.5C 1792.29,2105.6 1793.29,2104.93 1794.5,2104.5 Z"/></g>
<g><path style="opacity:0.004" fill="#0c182c" d="M 2061.5,2109.5 C 2061.17,2110.5 2060.5,2111.17 2059.5,2111.5C 2059.28,2110.32 2059.61,2109.32 2060.5,2108.5C 2061.11,2108.62 2061.44,2108.96 2061.5,2109.5 Z"/></g>
<g><path style="opacity:0.216" fill="#0a2eaf" d="M 710.5,2125.5 C 713.179,2125.52 714.512,2126.86 714.5,2129.5C 712.833,2128.5 711.5,2127.17 710.5,2125.5 Z"/></g>
<g><path style="opacity:0.922" fill="#1555a8" d="M 1006.5,2130.5 C 1008.5,2131.17 1010.5,2131.83 1012.5,2132.5C 1010.65,2137.42 1009.65,2137.42 1009.5,2132.5C 1007.82,2132.71 1006.82,2132.05 1006.5,2130.5 Z"/></g>
<g><path style="opacity:0.38" fill="#0e3668" d="M 1703.5,2150.5 C 1703.29,2152.42 1702.62,2152.76 1701.5,2151.5C 1701.84,2150.66 1702.51,2150.33 1703.5,2150.5 Z"/></g>
<g><path style="opacity:0.396" fill="#0e366e" d="M 761.5,2168.5 C 760.29,2168.07 759.29,2167.4 758.5,2166.5C 760.332,2165.28 761.332,2165.95 761.5,2168.5 Z"/></g>
<g><path style="opacity:0.129" fill="#0c264f" d="M 804.5,2200.5 C 803.508,2200.67 802.842,2200.34 802.5,2199.5C 803.623,2198.24 804.289,2198.58 804.5,2200.5 Z"/></g>
<g><path style="opacity:0.067" fill="#113469" d="M 859.5,2236.5 C 860.5,2236.5 861.5,2236.5 862.5,2236.5C 862.5,2237.5 862.5,2238.5 862.5,2239.5C 861.167,2238.83 860.167,2237.83 859.5,2236.5 Z"/></g>
<g><path style="opacity:0.384" fill="#10488f" d="M 1857.5,2258.5 C 1856.33,2259.34 1855,2260.01 1853.5,2260.5C 1853.5,2259.5 1853.5,2258.5 1853.5,2257.5C 1855.1,2257.23 1856.43,2257.57 1857.5,2258.5 Z"/></g>
<g><path style="opacity:0.004" fill="#0f2d5b" d="M 923.5,2272.5 C 922.209,2272.74 921.209,2272.4 920.5,2271.5C 921.947,2270.11 922.947,2270.45 923.5,2272.5 Z"/></g>
<g><path style="opacity:0.016" fill="#1247bd" d="M 934.5,2277.5 C 934.5,2277.83 934.5,2278.17 934.5,2278.5C 932.055,2277.69 929.722,2276.69 927.5,2275.5C 927.47,2274.5 927.97,2273.84 929,2273.5C 931.243,2274.51 933.076,2275.85 934.5,2277.5 Z"/></g>
<g><path style="opacity:0.055" fill="#11468a" d="M 934.5,2277.5 C 935.552,2277.35 936.552,2277.52 937.5,2278C 939.319,2278.74 940.652,2279.91 941.5,2281.5C 938.937,2280.91 936.604,2279.91 934.5,2278.5C 934.5,2278.17 934.5,2277.83 934.5,2277.5 Z"/></g>
<g><path style="opacity:0.043" fill="#0e3361" d="M 1788.5,2293.5 C 1787.39,2293.56 1786.39,2293.89 1785.5,2294.5C 1786.05,2292.45 1787.05,2292.11 1788.5,2293.5 Z"/></g>
<g><path style="opacity:0.047" fill="#092e5e" d="M 1727.5,2318.5 C 1726.39,2318.56 1725.39,2318.89 1724.5,2319.5C 1725.05,2317.45 1726.05,2317.11 1727.5,2318.5 Z"/></g>
<g><path style="opacity:0.016" fill="#0c1d39" d="M 1707.5,2326.5 C 1706.83,2326.5 1706.17,2326.5 1705.5,2326.5C 1706.17,2323.83 1706.83,2323.83 1707.5,2326.5 Z"/></g>
<g><path style="opacity:0.016" fill="#0f2952" d="M 1680.5,2335.5 C 1679.5,2335.5 1678.5,2335.5 1677.5,2335.5C 1678.5,2332.83 1679.5,2332.83 1680.5,2335.5 Z"/></g>
<g><path style="opacity:0.031" fill="#051a93" d="M 1140.5,2353.5 C 1139.83,2353.5 1139.17,2353.5 1138.5,2353.5C 1139.17,2350.83 1139.83,2350.83 1140.5,2353.5 Z"/></g>
<g><path style="opacity:0.667" fill="#0f4183" d="M 1558.5,2365.5 C 1557.5,2365.5 1556.5,2365.5 1555.5,2365.5C 1556.5,2362.83 1557.5,2362.83 1558.5,2365.5 Z"/></g>
<g><path style="opacity:0.024" fill="#082343" d="M 1232.5,2371.5 C 1231.83,2371.5 1231.17,2371.5 1230.5,2371.5C 1231.17,2368.83 1231.83,2368.83 1232.5,2371.5 Z"/></g>
<g><path style="opacity:0.173" fill="#0e3c7d" d="M 1482.5,2376.5 C 1481.5,2376.5 1480.5,2376.5 1479.5,2376.5C 1480.5,2373.83 1481.5,2373.83 1482.5,2376.5 Z"/></g>
<g><path style="opacity:0.043" fill="#071c8b" d="M 1437.5,2381.5 C 1436.5,2381.5 1435.5,2381.5 1434.5,2381.5C 1434.5,2380.5 1434.5,2379.5 1434.5,2378.5C 1435.5,2378.5 1436.5,2378.5 1437.5,2378.5C 1437.5,2379.5 1437.5,2380.5 1437.5,2381.5 Z"/></g>
</svg>
